<?xml version="1.0" standalone="no"?>
<!DOCTYPE svg PUBLIC "-//W3C//DTD SVG 1.1//EN" "http://www.w3.org/Graphics/SVG/1.1/DTD/svg11.dtd" >
<svg xmlns="http://www.w3.org/2000/svg">
<metadata>Generated by IcoMoon</metadata>
<defs>
<font id="BEA" horiz-adv-x="1024">
<font-face units-per-em="1024" ascent="960" descent="-64" />
<missing-glyph horiz-adv-x="1024" />
<glyph unicode="&#x20;" horiz-adv-x="512" d="" />
<glyph unicode="&#xe900;" glyph-name="login_identity_message" d="M858.726 803.942c4.915-1.434 9.421-3.686 13.312-6.758s7.373-6.554 10.445-10.445c2.867-3.891 5.12-8.397 6.758-13.107 1.434-4.71 2.253-9.83 2.253-15.155v-429.261c0-13.312-4.506-24.576-13.722-33.792s-20.275-13.722-33.792-13.722h-391.987l-137.011-135.373c-4.506-4.506-9.83-6.758-16.384-6.758-2.048 0-3.686 0.205-5.12 0.41s-2.867 0.614-4.506 1.024c-2.048 1.024-3.891 2.253-5.939 3.686s-3.686 3.277-4.71 5.12c-1.229 2.048-2.048 4.096-2.662 6.349-0.41 2.253-0.819 4.506-0.819 7.168v118.374h-94.618c-13.312 0-24.576 4.506-33.792 13.722s-13.722 20.48-13.722 33.792v429.261c0 13.312 4.506 24.576 13.722 33.792s20.275 13.722 33.792 13.722h663.552c4.915 0.205 9.83-0.614 14.95-2.048zM843.776 758.477h-663.552v-429.261h142.131v-109.363l110.387 109.363h411.034v429.261zM282.010 622.080c-4.71 4.71-6.963 10.24-6.963 16.794 0 6.349 2.253 12.083 6.963 16.794s10.24 7.168 16.589 7.168h426.598c6.349 0 11.878-2.458 16.589-7.168s6.963-10.24 6.963-16.794c0-6.554-2.253-12.083-6.963-16.794s-10.24-7.168-16.589-7.168h-426.598c-6.349 0-11.878 2.458-16.589 7.168zM282.010 526.848c-4.71 4.71-6.963 10.24-6.963 16.794 0 6.349 2.253 12.083 6.963 16.794s10.24 7.168 16.589 7.168h426.598c6.349 0 11.878-2.458 16.589-7.168s6.963-10.24 6.963-16.794c0-6.554-2.253-12.083-6.963-16.794s-10.24-7.168-16.589-7.168h-426.598c-6.349 0-11.878 2.458-16.589 7.168zM282.010 431.616c-4.71 4.71-6.963 10.24-6.963 16.794 0 6.349 2.253 12.083 6.963 16.794s10.24 7.168 16.589 7.168h284.467c6.349 0 11.878-2.458 16.589-7.168s6.963-10.24 6.963-16.794c0-6.554-2.253-12.083-6.963-16.794s-10.24-7.168-16.589-7.168h-284.467c-6.349 0-11.878 2.458-16.589 7.168z" />
<glyph unicode="&#xe901;" glyph-name="arrow_left" d="M241.778 427.264l495.986-491.861 43.065 40.96-470.272 471.268 471.836 471.41-44.914 40.96-495.701-491.89v-40.846z" />
<glyph unicode="&#xe902;" glyph-name="date" d="M703.983 213.294h-85.311v-85.311h85.311v85.311zM554.722 511.95h-85.311v-85.311h85.311v85.311zM703.983 362.689h-85.311v-85.444h85.311v85.444zM703.983 511.95h-85.311v-85.311h85.311v85.311zM853.378 511.95h-85.311v-85.311h85.311v85.311zM853.378 362.689h-85.311v-85.444h85.311v85.444zM554.722 362.689h-85.311v-85.444h85.311v85.444zM405.328 511.95h-85.311v-85.311h85.311v85.311zM256.067 362.689h-85.444v-85.444h85.444v85.444zM405.328 213.294h-85.311v-85.311h85.311v85.311zM256.067 213.294h-85.444v-85.311h85.444v85.311zM405.328 362.689h-85.311v-85.444h85.311v85.444zM554.722 213.294h-85.311v-85.311h85.311v85.311zM832.017 874.689v85.311h-42.589v-85.311h-554.722v85.311h-42.722v-85.311h-191.983v-938.689h1024v938.689h-191.983zM981.411-21.411h-938.689v640.033h938.689v-640.033zM981.411 661.344h-938.689v170.622h149.261v-42.589h42.722v42.589h554.722v-42.589h42.589v42.589h149.394v-170.622z" />
<glyph unicode="&#xe903;" glyph-name="arrow_down" d="M532.421 177.862l491.579 495.689-40.953 43.050-470.977-469.998-471.117 471.536-40.953-44.867 491.607-495.409h40.814z" />
<glyph unicode="&#xe904;" glyph-name="arrow_up" d="M491.579 718.138l-491.579-495.689 40.953-43.050 470.977 469.998 471.117-471.536 40.953 44.867-491.607 495.409h-40.814z" />
<glyph unicode="&#xe905;" glyph-name="login_information" d="M659.456 801.69c46.899-20.070 87.45-47.104 121.242-81.101s60.826-74.547 80.896-121.856c20.070-47.104 30.106-96.666 30.106-148.275s-10.035-100.966-30.106-148.275c-20.070-47.104-46.899-87.859-80.896-121.856-33.792-33.997-74.342-61.030-121.242-81.101s-96.051-30.106-147.456-30.106c-68.813 0-132.301 16.998-190.464 50.995-58.368 33.997-104.448 80.282-138.24 138.854s-50.79 122.47-50.79 191.488c0 69.018 16.998 132.71 50.79 191.488 33.792 58.573 79.872 104.858 138.24 138.854s121.856 50.995 190.464 50.995c51.405 0.205 100.557-10.035 147.456-30.106zM641.024 142.643c40.96 17.613 76.39 41.37 106.086 71.475s53.248 65.741 70.861 106.906c17.613 41.165 26.419 84.378 26.419 129.638s-8.806 88.269-26.419 129.638c-17.613 41.165-41.165 76.8-70.861 106.496s-64.922 53.453-106.086 71.066c-40.96 17.613-83.968 26.419-129.024 26.419s-88.064-8.806-129.024-26.419c-40.96-17.613-76.39-41.37-106.086-71.066s-53.248-65.331-70.861-106.496c-17.613-41.165-26.419-84.378-26.419-129.638 0-36.25 5.53-71.475 16.589-105.472s27.034-64.717 47.514-91.955c20.48-27.238 44.442-51.405 71.475-72.294 27.238-20.89 57.754-36.864 91.546-48.128s68.813-16.794 104.858-16.794c45.466 0.205 88.474 9.011 129.434 26.624zM599.859 636.006c21.094-19.456 31.539-46.49 31.539-81.101 0-25.395-6.758-48.333-20.070-69.222-6.963-10.035-14.95-20.275-24.166-30.925s-19.251-21.504-30.106-32.358c-5.53-5.53-9.83-10.65-12.902-15.36-3.277-4.71-5.325-9.011-6.349-13.107-2.048-8.397-2.867-21.299-2.867-38.707h-57.139c0 27.853 2.253 47.104 6.963 58.163 4.71 10.854 16.998 25.395 36.659 43.213 18.842 22.733 32.358 40.141 40.755 52.224 3.891 6.349 6.963 13.312 8.806 20.48 2.048 7.168 2.867 15.36 2.867 24.166 0 20.275-5.53 36.045-16.384 46.899-5.53 5.53-12.083 9.626-19.661 12.698s-16.589 4.506-27.034 4.506c-8.806 0-16.998-1.229-24.371-3.686s-14.131-6.144-20.070-11.264c-5.939-4.506-10.445-12.083-13.722-23.142-3.277-10.854-4.915-21.504-4.915-31.949h-54.886l-0.819 2.253c-0.41 16.384 2.253 32.973 8.192 49.562s14.131 29.491 24.371 38.298c4.506 3.482 9.216 6.758 14.541 9.626s10.445 5.53 15.974 7.782c5.53 2.253 11.059 4.096 16.998 5.53s12.083 2.662 18.637 3.277c6.349 0.819 13.107 1.024 20.070 1.024 38.502 0.205 67.994-9.421 89.088-28.877zM477.184 296.448h59.392v-60.416h-59.392v60.416z" />
<glyph unicode="&#xe906;" glyph-name="menu" d="M242.98 809.437h743.393c14.089 0 25.55 11.461 25.55 25.55 0 14.061-11.461 25.522-25.55 25.522h-743.393c-14.089 0-25.55-11.461-25.55-25.522 0.028-14.089 11.489-25.55 25.55-25.55zM986.401 473.229h-743.421c-14.089 0-25.55-11.405-25.55-25.467 0-14.089 11.461-25.55 25.55-25.55h743.393c14.089 0 25.55 11.461 25.55 25.55 0 14.033-11.461 25.467-25.522 25.467zM986.401 85.137h-743.421c-14.089 0-25.55-11.433-25.55-25.467 0-14.089 11.461-25.55 25.55-25.55h743.393c14.089 0 25.55 11.461 25.55 25.55 0 14.033-11.461 25.467-25.522 25.467zM133.566 836.385c0-33.549-27.196-60.745-60.745-60.745s-60.745 27.196-60.745 60.745c0 33.549 27.196 60.745 60.745 60.745s60.745-27.196 60.745-60.745zM133.566 449.468c0-33.549-27.196-60.745-60.745-60.745s-60.745 27.196-60.745 60.745c0 33.549 27.196 60.745 60.745 60.745s60.745-27.196 60.745-60.745zM133.622 59.671c0-33.564-27.209-60.773-60.773-60.773s-60.773 27.209-60.773 60.773c0 33.564 27.209 60.773 60.773 60.773s60.773-27.209 60.773-60.773z" />
<glyph unicode="&#xe907;" glyph-name="arrow_right" d="M782.393 468.139l-495.986 491.861-43.065-40.96 470.272-471.268-471.836-471.41 44.914-40.96 495.701 491.89v40.846z" />
<glyph unicode="&#xe908;" glyph-name="login_password" d="M808.755 521.933c19.661-19.661 29.491-43.418 29.491-71.27v-302.285c0-27.853-9.83-51.61-29.491-71.27s-43.213-29.491-70.861-29.491h-451.584c-27.648 0-51.405 9.83-70.861 29.491-19.661 19.661-29.491 43.418-29.491 71.27v302.285c0 27.853 9.83 51.61 29.491 71.27s43.213 29.491 70.861 29.491h24.986v96.051c0 37.888 8.192 72.294 24.781 103.629 16.384 31.13 40.141 56.115 70.861 74.752 30.925 18.637 65.536 27.853 104.243 27.853 58.573 0 106.701-19.866 144.589-59.392 37.888-39.731 56.934-88.678 56.934-146.842v-96.051h24.986c27.853 0.205 51.405-9.626 71.066-29.491zM788.070 450.662c0 13.722-4.915 25.395-14.95 35.43s-21.709 14.95-35.226 14.95h-451.584c-13.517 0-25.395-4.915-35.226-14.95-10.035-10.035-14.95-21.709-14.95-35.43v-302.285c0-13.722 4.915-25.395 14.95-35.43 9.83-10.035 21.709-14.95 35.226-14.95h451.584c8.806 0 17.203 2.253 24.986 6.758s13.926 10.65 18.432 18.432c4.506 7.782 6.758 16.179 6.758 25.19v302.285zM361.472 551.629h301.056v96.051c0 44.646-14.131 81.715-42.394 111.411s-64.512 44.442-108.954 44.442c-44.442 0-80.486-14.95-108.134-44.851s-41.574-66.97-41.574-111.002v-96.051zM562.176 349.901c0-18.842-8.397-33.382-24.986-43.213v-82.739c0-6.758-2.458-12.698-7.373-17.818-4.915-4.915-10.854-7.578-17.613-7.578s-12.698 2.458-17.613 7.578c-4.915 4.915-7.373 10.854-7.373 17.818v82.739c-16.794 10.035-24.986 24.371-24.986 43.213 0 14.131 4.915 26.010 14.541 35.84 9.626 9.626 21.504 14.541 35.635 14.541s26.010-4.915 35.635-14.541c9.216-9.626 14.131-21.709 14.131-35.84z" />
<glyph unicode="&#xe909;" glyph-name="login_touchid" d="M188.416 331.059c-3.891 0-7.373 2.458-8.602 6.144-12.083 35.635-18.022 72.909-18.022 110.797 0 33.587 4.71 66.97 14.131 98.918 1.434 4.915 6.554 7.578 11.264 6.144 4.915-1.434 7.578-6.554 6.144-11.264-8.806-30.31-13.312-61.85-13.312-93.594 0-35.84 5.734-71.27 16.998-105.062 1.638-4.71-1.024-10.035-5.734-11.469-1.024-0.614-2.048-0.614-2.867-0.614zM205.21 588.083c-1.434 0-2.662 0.205-3.891 1.024-4.506 2.253-6.349 7.578-4.301 12.288 58.573 120.013 177.766 195.584 311.091 197.018 0 0 0 0 0.205 0 4.915 0 9.011-4.096 9.216-9.011 0-5.12-3.891-9.216-9.011-9.216-126.362-1.434-239.411-72.909-294.912-186.778-1.843-3.482-5.12-5.325-8.397-5.325zM852.992 448.614c-4.915 0-9.011 3.891-9.011 8.806-4.506 159.949-122.47 293.888-280.576 318.464-4.915 0.819-8.397 5.53-7.578 10.445s5.53 8.397 10.445 7.578c166.707-26.010 291.226-167.322 295.936-336.077 0.205-5.12-3.891-9.216-8.806-9.421-0.205 0.205-0.205 0.205-0.41 0.205zM472.269 100.045c-1.229 0-2.662 0.205-3.891 0.819-4.506 2.048-6.554 7.578-4.506 12.083 6.963 14.95 13.312 30.72 19.251 46.694 1.638 4.71 6.963 7.168 11.674 5.53s7.168-6.963 5.53-11.674c-5.939-16.589-12.698-32.768-19.866-48.128-1.434-3.277-4.71-5.325-8.192-5.325zM508.518 202.035c-0.819 0-1.434 0-2.253 0.205-4.915 1.229-7.782 6.144-6.554 11.059 3.686 14.541 6.758 29.286 9.011 43.418 16.179 99.533-5.325 188.006-5.53 188.826-1.229 4.915 1.843 9.83 6.758 11.059s9.83-1.843 11.059-6.758c1.024-3.686 22.528-92.979 5.939-196.198-2.458-14.746-5.53-29.901-9.421-45.056-1.229-3.686-4.915-6.554-9.011-6.554zM533.914 97.792c-1.024 0-2.253 0.205-3.277 0.614-4.71 1.843-6.963 7.168-5.12 11.878 10.445 26.214 29.491 80.282 40.141 146.637 1.024 6.144 1.843 12.493 2.662 19.046 0.614 4.915 5.12 8.602 10.035 7.987s8.602-5.12 7.987-10.035c-0.819-6.758-1.638-13.312-2.662-19.866-11.059-68.198-30.515-123.494-41.165-150.528-1.638-3.482-5.12-5.734-8.602-5.734zM413.696 112.333c-1.434 0-2.867 0.41-4.096 1.024-4.506 2.253-6.349 7.782-4.096 12.288 14.95 29.491 34.816 76.186 44.442 131.277s8.602 117.146-2.867 179.61c-0.614 3.891-1.024 7.782-1.024 11.674 0 36.454 29.491 65.946 65.946 65.946 30.925 0 57.344-20.89 64.307-50.995 0.614-2.458 13.517-59.392 13.312-131.277 0-5.12-4.096-9.011-9.216-9.011v0c-5.12 0-9.011 4.096-9.011 9.216 0.205 69.837-12.698 126.566-12.902 127.181-5.12 21.709-24.166 36.864-46.49 36.864-26.214 0-47.718-21.504-47.718-47.718 0-2.867 0.205-5.734 0.819-8.397 11.878-64.512 12.902-128.819 3.072-185.958-10.035-57.344-30.515-105.882-46.080-136.397-1.843-3.686-5.12-5.325-8.397-5.325zM805.069 264.090c-0.205 0-0.41 0-0.614 0-5.12 0.205-8.806 4.506-8.602 9.626 1.229 23.347 1.638 47.718 1.229 71.885 0 5.12 3.891 9.216 9.011 9.216 4.915-0.205 9.216-3.891 9.216-9.011 0.41-24.781 0-49.357-1.229-73.318-0.205-4.506-4.301-8.397-9.011-8.397zM803.635 393.523c-4.71 0-8.806 3.686-9.011 8.397-3.686 50.176-9.626 82.944-9.626 83.354-19.046 135.782-136.397 237.773-272.998 237.773-37.478 0-73.728-7.373-107.93-21.914-4.71-2.048-10.035 0.205-11.878 4.71s0.205 10.035 4.915 11.878c36.454 15.565 75.162 23.347 115.098 23.347 145.613 0 270.746-108.749 290.816-252.928 0.205-1.024 6.144-33.587 9.83-84.992 0.41-5.12-3.482-9.421-8.397-9.83-0.205 0.41-0.614 0.205-0.819 0.205zM226.714 251.802c-1.024 0-2.253 0.205-3.277 0.614-4.71 1.843-6.963 7.168-5.12 11.878 3.482 8.806 6.144 17.613 8.192 26.214 7.782 33.792 1.024 82.33-3.686 108.339-2.662 16.179-4.096 32.563-4.096 48.947 0 96.666 47.514 186.982 127.181 241.869 4.096 2.867 9.83 1.843 12.698-2.253s1.843-9.83-2.253-12.698c-74.752-51.405-119.398-136.192-119.398-226.714 0-15.36 1.229-30.72 3.891-45.875 4.915-27.238 12.083-78.643 3.482-115.712-2.253-9.626-5.325-19.251-9.011-28.877-1.434-3.482-4.915-5.734-8.602-5.734zM266.445 201.83c-1.434 0-2.662 0.205-3.891 1.024-4.506 2.253-6.349 7.578-4.096 12.288 11.059 22.528 18.842 45.67 22.938 68.813 6.758 37.274 5.939 79.053-3.072 127.795-1.843 12.083-2.867 24.166-2.867 36.25 0 130.458 106.086 236.544 236.544 236.544 19.866 0 39.731-2.458 58.778-7.373 4.915-1.229 7.782-6.144 6.554-11.059s-6.144-7.782-11.059-6.554c-17.613 4.506-35.84 6.758-54.272 6.758-120.422 0-218.317-97.894-218.317-218.317 0-11.059 0.819-22.323 2.458-33.382 9.216-50.79 10.24-94.822 3.072-134.144-4.506-24.781-12.698-49.357-24.576-73.523-1.434-3.277-4.71-5.12-8.192-5.12zM738.714 184.218c-0.614 0-1.024 0-1.638 0.205-4.915 0.819-8.397 5.53-7.373 10.445 2.048 11.878 3.891 24.166 5.325 36.045 16.179 128.205-6.963 248.422-7.168 249.446-10.24 67.174-51.61 126.362-111.002 158.925-4.506 2.458-5.939 7.987-3.686 12.288 2.458 4.506 7.987 5.939 12.288 3.686 64.307-35.226 109.363-99.533 120.218-171.827 0.205-0.819 23.962-123.699 7.373-254.976-1.638-12.288-3.482-24.781-5.53-36.864-0.614-4.301-4.506-7.373-8.806-7.373zM668.877 135.885c-0.819 0-1.638 0-2.253 0.205-4.915 1.229-7.782 6.349-6.554 11.059 10.445 39.936 17.613 80.077 21.504 119.603 8.192 84.173-1.638 162.611-11.469 213.606-1.229 6.144-3.072 12.493-5.12 18.637-1.638 4.71 1.024 10.035 5.734 11.469 4.71 1.638 10.035-1.024 11.469-5.734 2.253-6.758 4.096-13.926 5.53-20.89 10.035-52.224 20.070-132.506 11.674-218.931-3.891-40.55-11.264-81.715-21.914-122.47-0.819-3.686-4.506-6.554-8.602-6.554zM349.798 289.485c-0.41 0-0.614 0-1.024 0-4.915 0.614-8.602 5.12-7.987 10.035 6.758 62.669-4.71 112.435-4.915 112.845-2.253 11.878-3.482 23.552-3.482 35.43 0 99.123 80.691 179.61 179.61 179.61 55.91 0 107.52-25.19 141.926-69.427 3.072-3.891 2.458-9.626-1.638-12.902-3.891-3.072-9.626-2.458-12.902 1.638-30.925 39.526-77.21 62.259-127.386 62.259-89.088 0-161.382-72.499-161.382-161.382 0-10.65 1.024-21.299 3.072-31.539 0.41-1.843 12.288-53.043 5.12-118.784-0.41-4.301-4.506-7.782-9.011-7.782zM310.886 163.123c-1.434 0-2.867 0.41-4.096 1.024-4.506 2.253-6.144 7.782-3.891 12.288 11.674 22.733 20.89 45.875 27.443 68.813 1.434 4.915 6.349 7.782 11.264 6.349s7.578-6.349 6.349-11.264c-6.758-24.166-16.384-48.333-28.672-72.294-1.843-3.072-5.12-4.915-8.397-4.915zM600.678 109.261c-1.024 0-2.048 0.205-2.867 0.41-4.71 1.638-7.373 6.758-5.734 11.674 11.059 32.768 25.805 84.582 32.563 144.794 10.035 91.341-3.686 172.646-10.035 203.366-9.83 48.128-53.043 82.944-102.4 82.944-12.288 0-24.576-2.048-36.045-6.349-4.71-1.638-10.035 0.614-11.674 5.53-1.638 4.71 0.614 10.035 5.325 11.674 13.517 4.915 27.648 7.373 42.189 7.373 57.958 0 108.544-40.96 120.218-97.485 6.554-31.539 20.685-115.098 10.445-209.101-6.758-61.85-21.914-115.098-33.382-148.685-1.229-3.686-4.915-6.144-8.602-6.144zM360.858 133.018c-1.434 0-2.867 0.41-4.301 1.024-4.506 2.253-6.144 7.782-3.891 12.288 21.094 40.141 34.816 79.872 40.755 118.374 7.987 50.381 7.168 104.653-2.458 161.382-1.229 6.758-1.843 13.926-1.843 21.914 0 29.696 10.854 58.573 30.515 80.896 3.277 3.686 9.011 4.096 12.902 0.819s4.096-9.011 0.819-12.902c-16.794-19.046-26.010-43.622-26.010-69.018 0-6.963 0.41-12.698 1.638-18.842 10.035-58.982 10.854-115.098 2.458-167.526-6.349-40.346-20.685-82.125-42.803-123.904-1.434-2.867-4.506-4.506-7.782-4.506z" />
<glyph unicode="&#xe90a;" glyph-name="login_upload" d="M644.915 371.814l-132.915 133.12-133.12-133.12 20.070-17.408 100.557 100.557v-339.763h24.781v339.763l100.762-100.557 19.866 17.408zM828.416 555.11l-1.434 0.614-0.41 1.638c-15.155 75.366-84.787 132.096-161.997 132.096-27.238 0-50.586-5.939-71.885-18.022l-2.458-1.434-1.434 2.662c-36.454 66.765-106.701 108.339-183.501 108.339-56.73 0-109.978-21.709-149.504-61.44-39.526-39.526-61.44-92.57-61.44-149.504v-14.131l-1.638-0.819c-55.296-24.576-89.702-77.414-89.702-137.83 0-83.968 65.741-149.709 149.709-149.709h210.739v24.781h-210.944c-68.813 0-124.928 56.115-124.928 124.928 0 58.163 38.502 107.52 94.003 121.242-2.458 11.264-2.458 20.275-2.458 31.334 0 102.605 83.354 185.958 185.958 185.958 38.707 0 76.186-12.083 108.134-35.226 29.901-21.504 53.043-50.995 67.174-85.197 26.010 18.637 55.91 28.877 84.173 28.877 72.909 0 132.506-53.862 139.878-125.747 53.453-13.517 91.955-64.307 91.955-121.446 0-68.813-56.115-124.928-124.928-124.928h-210.944v-24.371h210.739c83.968 0 149.709 65.741 149.709 149.709 0.205 60.826-37.069 116.122-92.57 137.626v0z" />
<glyph unicode="&#xe90b;" glyph-name="cross_circle" d="M512-12.802c-254.083 0-460.8 206.717-460.8 460.804 0 254.085 206.715 460.8 460.8 460.8s460.8-206.717 460.8-460.8c0-254.087-206.715-460.804-460.8-460.804zM512 888.766c-243.040 0-440.764-197.726-440.764-440.764 0-243.040 197.724-440.769 440.764-440.769s440.764 197.728 440.764 440.769c0 243.038-197.724 440.764-440.764 440.764zM511.207 425.865l147.073-147.073c6.328-6.326 15.815-6.328 22.135 0 6.328 6.326 6.328 15.815 0 22.143l-147.067 147.065 147.067 147.075c6.328 6.326 6.328 15.815 0 22.133-6.32 6.328-15.806 6.326-22.135-0.002l-147.073-147.063-147.065 147.065c-6.33 6.328-15.815 6.326-22.143 0-3.16-3.158-3.16-9.488-3.16-12.646 0-3.16 0-9.488 3.16-9.488l147.073-147.073-147.077-147.065c-3.156-3.168-3.158-9.488-3.158-12.655 0-3.16 0-9.488 3.16-9.488 6.328-6.318 15.815-6.318 22.143 0l147.067 147.073z" />
<glyph unicode="&#xe90c;" glyph-name="docu_enlarge" d="M338.082-2.761h-108.634v16.237l43.522 43.938c13.263 13.472 22.004 23.085 26.227 28.84 4.221 5.751 7.383 11.354 9.497 16.804 2.107 5.448 3.164 11.313 3.164 17.598 0 8.856-2.677 15.876-8.026 21.060-5.351 5.183-12.773 7.778-22.27 7.778-6.859 0-13.357-1.137-19.499-3.406-6.144-2.269-12.984-6.398-20.519-12.376l-9.947 12.831c15.223 12.716 31.801 19.073 49.738 19.073 15.524 0 27.695-3.992 36.514-11.979 8.817-7.985 13.226-18.717 13.226-32.188 0-10.523-2.941-20.931-8.819-31.222-5.878-10.295-16.882-23.314-33.008-39.057l-36.174-35.537v-0.909h85.008v-17.484zM471.357 80.464c0-28.688-4.504-50.11-13.509-64.264s-22.778-21.23-41.318-21.23c-17.787 0-31.312 7.246-40.581 21.742-9.267 14.494-13.904 35.744-13.904 63.752 0 28.912 4.483 50.371 13.451 64.377 8.968 14.002 22.647 21.004 41.034 21.004 17.936 0 31.558-7.305 40.866-21.914s13.961-35.766 13.961-63.468zM381.039 80.464c0-24.148 2.826-41.726 8.479-52.74 5.652-11.012 14.655-16.517 27.015-16.517 12.509 0 21.572 5.581 27.187 16.746 5.612 11.164 8.421 28.668 8.421 52.513 0 23.843-2.81 41.308-8.421 52.396-5.616 11.088-14.678 16.634-27.187 16.634-12.36 0-21.365-5.47-27.015-16.407-5.652-10.938-8.479-28.482-8.479-52.625zM603.732 80.464c0-28.688-4.504-50.11-13.509-64.264s-22.778-21.23-41.318-21.23c-17.787 0-31.312 7.246-40.581 21.742-9.267 14.494-13.904 35.744-13.904 63.752 0 28.912 4.483 50.371 13.451 64.377 8.968 14.002 22.647 21.004 41.034 21.004 17.936 0 31.558-7.305 40.866-21.914s13.961-35.766 13.961-63.468zM513.411 80.464c0-24.148 2.826-41.726 8.479-52.74 5.652-11.012 14.655-16.517 27.015-16.517 12.509 0 21.572 5.581 27.187 16.746 5.612 11.164 8.421 28.668 8.421 52.513 0 23.843-2.81 41.308-8.421 52.396-5.616 11.088-14.678 16.634-27.187 16.634-12.36 0-21.365-5.47-27.015-16.407-5.652-10.938-8.479-28.482-8.479-52.625zM694.393 113.73c0-17.258-2.882-30.298-8.649-39.115-5.765-8.819-14.225-13.228-25.379-13.228-10.551 0-18.747 4.504-24.586 13.513-5.843 9.005-8.761 21.95-8.761 38.83 0 17.183 2.808 30.124 8.421 38.83 5.614 8.702 13.922 13.056 24.926 13.056 10.926 0 19.329-4.504 25.209-13.511 5.878-9.009 8.819-21.799 8.819-38.375zM642.617 113.73c0-12.87 1.395-22.52 4.182-28.953 2.787-6.435 7.309-9.652 13.566-9.652 12.358 0 18.541 12.868 18.541 38.605 0 25.582-6.183 38.375-18.541 38.375-6.257 0-10.779-3.181-13.566-9.538s-4.182-15.972-4.182-28.838zM764.817 163.232l-91.679-165.992h-16.617l91.679 165.992h16.617zM793.983 47.196c0-17.183-2.882-30.181-8.649-39-5.763-8.819-14.225-13.226-25.379-13.226-10.703 0-18.934 4.502-24.701 13.511-5.763 9.005-8.647 21.914-8.647 38.715 0 17.183 2.806 30.126 8.419 38.83s13.922 13.058 24.926 13.058c10.701 0 19.048-4.448 25.041-13.343s8.989-21.742 8.989-38.545zM742.097 47.196c0-12.941 1.395-22.612 4.182-29.008 2.787-6.398 7.348-9.595 13.679-9.595s11.002 3.16 14.019 9.48c3.015 6.32 4.522 16.026 4.522 29.123 0 12.943-1.507 22.538-4.522 28.783-3.017 6.244-7.686 9.368-14.019 9.368-6.33 0-10.889-3.123-13.679-9.368s-4.182-15.839-4.182-28.783zM841.55 871.098h-323.234v21.135c0 3.486-2.839 6.326-6.324 6.326h-54.925c-3.486 0-6.322-2.841-6.322-6.326v-21.135h-207.049v21.135c0 3.486-2.834 6.326-6.32 6.326h-54.927c-3.486 0-6.32-2.841-6.32-6.326v-54.925c0-3.486 2.834-6.322 6.32-6.322h21.137v-207.047h-21.137c-3.486 0-6.32-2.841-6.32-6.326v-54.921c0-3.486 2.834-6.326 6.32-6.326h21.137v-323.234c0-3.486 2.839-6.326 6.328-6.326h631.638c3.486 0 6.324 2.841 6.324 6.326v631.64c-0.002 3.488-2.841 6.326-6.326 6.326zM463.391 885.912h42.273v-42.279h-42.273v42.279zM243.696 837.308v21.137h207.049v-21.139c0-3.486 2.845-6.322 6.341-6.322h21.135v-207.047h-21.135c-3.496 0-6.341-2.841-6.341-6.326v-21.131h-207.049v21.133c0 3.486-2.834 6.326-6.32 6.326h-21.137v207.047h21.137c3.484 0 6.32 2.834 6.32 6.322zM505.663 611.293v-42.273h-42.273v42.273h42.273zM188.772 843.635v42.277h42.279v-42.279h-42.279zM188.772 569.020v42.273h42.279v-42.273h-42.279zM835.226 239.456h-618.99v316.912h21.137c3.486 0 6.32 2.841 6.32 6.326v21.139h207.051v-21.139c0-3.486 2.845-6.326 6.341-6.326h54.923c3.49 0 6.324 2.841 6.324 6.326v54.921c0 3.486-2.834 6.326-6.324 6.326h-21.158v207.045h21.158c3.49 0 6.324 2.834 6.324 6.322v21.137h316.893v-618.99zM716.425 349.307h-122.049c-3.486 0-6.324-2.841-6.324-6.326s2.839-6.326 6.324-6.326h137.329c3.486 0 6.32 2.841 6.32 6.326v137.327c0 3.486-2.834 6.326-6.32 6.326-3.492 0-6.332-2.841-6.332-6.326v-122.046l-140.243 140.249c-2.466 2.46-6.486 2.464-8.958-0.004-2.462-2.464-2.464-6.48 0.004-8.95l140.249-140.249z" />
<glyph unicode="&#xe90d;" glyph-name="call" d="M925.131 180.699c-2.626 19.88-14.107 37.024-31.48 47.030l-204.126 117.529c-25 14.389-56.717 10.197-77.117-10.199l-40.208-40.21c-10.699-10.699-27.625-11.647-39.371-2.198-31.691 25.504-62.902 53.574-92.754 83.427-29.85 29.848-57.922 61.051-83.427 92.754-9.449 11.741-8.497 28.662 2.202 39.367l40.206 40.21c20.4 20.398 24.596 52.109 10.201 77.115l-117.527 204.12c-10.007 17.381-27.152 28.865-47.030 31.49-19.884 2.632-39.42-3.998-53.6-18.176l-60.578-60.584c-42.285-42.289-42.967-119.64-1.913-217.795 39.465-94.386 113.125-198.289 207.409-292.569 94.28-94.28 198.187-167.94 292.569-207.415 48.323-20.199 91.591-30.306 128.127-30.296 37.675 0 68.19 10.74 89.661 32.211l60.582 60.582c14.178 14.184 20.804 33.72 18.174 53.606v0zM676.147 322.030l204.126-117.535c10.099-5.81 16.761-15.768 18.291-27.312 1.282-9.693-1.241-19.229-6.949-26.929l-271.276 154.831 11.022 11.010c11.85 11.848 30.267 14.291 44.786 5.935v0zM241.187 834.552c11.543-1.526 21.502-8.19 27.308-18.287l117.529-204.12c8.368-14.518 5.931-32.938-5.921-44.788l-10.119-10.117-155.671 270.375c6.359 4.71 13.967 7.268 21.91 7.268 1.64 0 3.31-0.102 4.964-0.332v0zM827.415 85.467c-33.585-33.593-102.291-32.188-188.494 3.869-91.238 38.156-192.084 109.758-283.957 201.632-91.869 91.875-163.473 192.713-201.63 283.957-36.055 86.202-37.46 154.896-3.867 188.5l44.972 44.972 155.912-270.789-10.457-10.453c-20.398-20.4-22.176-52.693-4.131-75.129 26.104-32.438 54.829-64.375 85.363-94.898 30.527-30.53 62.454-59.255 94.898-85.363 22.434-18.045 54.727-16.267 75.129 4.137l9.535 9.535 271.657-155.042-44.931-44.929z" />
<glyph unicode="&#xe90e;" glyph-name="docu_multi" d="M329.165 404.814h-87.493v13.076l35.052 35.387c10.682 10.85 17.721 18.592 21.121 23.226 3.398 4.633 5.945 9.144 7.645 13.531 1.7 4.391 2.55 9.114 2.55 14.174 0 7.131-2.157 12.786-6.463 16.962-4.309 4.176-10.287 6.265-17.936 6.265-5.523 0-10.758-0.913-15.704-2.744-4.948-1.829-10.455-5.153-16.523-9.966l-8.012 10.332c12.259 10.242 25.612 15.362 40.059 15.362 12.503 0 22.307-3.215 29.407-9.646 7.1-6.433 10.652-15.073 10.652-25.924 0-8.475-2.367-16.855-7.102-25.145-4.735-8.292-13.597-18.776-26.583-31.455l-29.135-28.621v-0.731h68.465v-14.084zM464.816 404.814l-45.158 118.508h-0.727c0.85-9.39 1.276-20.543 1.276-33.468v-85.039h-14.293v133.685h23.306l42.152-110.279h0.729l42.516 110.279h23.124v-133.685h-15.477v86.139c0 9.873 0.424 20.605 1.274 32.186h-0.727l-45.523-118.323h-12.472zM574.251 538.499h37.599c17.662 0 30.437-2.652 38.328-7.954 7.891-5.304 11.835-13.687 11.835-25.147 0-7.924-2.2-14.463-6.601-19.614-4.401-5.153-10.82-8.489-19.255-10.013v-0.913c20.212-3.475 30.319-14.143 30.319-32.004 0-11.95-4.022-21.277-12.065-27.982s-19.286-10.058-33.733-10.058h-46.43v133.685zM589.726 481.257h25.491c10.926 0 18.784 1.722 23.581 5.165 4.794 3.445 7.193 9.251 7.193 17.42 0 7.498-2.671 12.909-8.012 16.232-5.339 3.322-13.838 4.983-25.489 4.983h-22.761v-43.801zM589.726 468.093v-50.020h27.769c10.744 0 18.829 2.089 24.265 6.265 5.429 4.176 8.149 10.713 8.149 19.614 0 8.29-2.777 14.385-8.329 18.289-5.554 3.901-14.008 5.853-25.356 5.853h-26.497zM788.343 819.077h-65.147v65.147h-401.916l-150.774-150.77v-586.705h65.147v-65.147h65.145v-65.137h552.694v737.464h-65.149v65.147zM316.807 858.155v-120.228h-120.23l120.23 120.228zM185.774 162.028v560.632h146.309v146.297h375.847v-706.929h-522.156zM250.921 96.881v49.879h472.283v657.050h49.871v-706.929h-522.154zM838.226 738.662v-706.929h-522.156v49.879h472.273v657.050h49.883z" />
<glyph unicode="&#xe90f;" glyph-name="docu_nosymbol" d="M400.259 669.587c0-17.66-2.72-33.831-8.155-48.503-5.437-14.674-13.097-26.051-22.981-34.14-9.886-8.081-21.252-12.122-34.099-12.122-10.627 0-19.583 3.232-26.872 9.697-7.291 6.466-11.614 14.737-12.972 24.814h-1.483c-4.942-10.824-12.016-19.284-21.219-25.369-9.206-6.101-20.107-9.142-32.709-9.142-18.532 0-33.018 6.369-43.459 19.118-10.443 12.749-15.659 30.067-15.659 51.958 0 25.369 7.289 45.984 21.869 61.846 14.578 15.854 33.729 23.785 57.45 23.785 8.401 0 17.912-0.776 28.539-2.337 10.625-1.552 20.199-3.701 28.725-6.433l-4.633-87.683v-4.104c0-22.137 8.215-33.204 24.648-33.204 11.241 0 20.386 6.687 27.429 20.052 7.041 13.365 10.564 30.749 10.564 52.14 0 22.51-4.573 42.23-13.713 59.144-9.144 16.906-22.147 29.94-39.010 39.084-16.863 9.136-36.231 13.707-58.098 13.707-27.552 0-51.519-5.753-71.903-17.256-20.386-11.504-35.953-27.92-46.701-49.248s-16.122-45.986-16.122-73.97c0-37.935 9.943-67.099 29.837-87.493 19.89-20.402 48.554-30.599 85.989-30.599 25.946 0 52.877 5.347 80.8 16.044v-24.814c-23.72-10.443-50.657-15.671-80.8-15.671-44.847 0-79.659 12.407-104.43 37.222-24.773 24.814-37.157 59.478-37.157 104.004 0 32.334 6.607 61.127 19.829 86.376 13.218 25.25 32.061 44.804 56.523 58.669 24.461 13.873 52.507 20.806 84.136 20.806 26.561 0 50.19-5.634 70.885-16.884 20.693-11.258 36.694-27.238 47.999-47.95 11.297-20.703 16.951-44.55 16.951-71.545zM208.636 645.155c0-31.597 12.044-47.387 36.137-47.387 25.573 0 39.473 19.466 41.697 58.393l2.595 48.695c-8.894 2.48-18.596 3.731-29.096 3.731-16.062 0-28.633-5.601-37.714-16.796-9.079-11.19-13.619-26.743-13.619-46.637zM636.592 683.766l-12.231-63.431h52.445v-24.062h-56.893l-15.567-80.22h-25.389l15.567 80.22h-56.152l-15.196-80.22h-25.205l14.825 80.22h-48.554v24.062h53.187l12.601 63.431h-51.333v23.697h55.411l15.196 81.336h25.76l-15.196-81.336h56.523l15.567 81.336h24.834l-15.567-81.336h48.925v-23.697h-53.557zM542.818 620.335h56.152l12.231 63.431h-56.152l-12.231-63.431zM263.315 195.996c0-16.914-6.302-30.876-18.903-41.88-12.601-11.006-30.208-17.938-52.816-20.797v-43.282h-23.906v41.603c-13.838 0-27.242 1.085-40.215 3.265-12.974 2.171-23.601 5.19-31.875 9.048v29.1c10.254-4.604 22.084-8.366 35.49-11.282 13.404-2.925 25.602-4.389 36.602-4.389v82.090c-25.328 8.081-43.088 17.469-53.281 28.166s-15.288 24.506-15.288 41.421c0 16.29 6.269 29.655 18.811 40.106 12.538 10.451 29.125 16.79 49.758 19.030v33.95h23.906v-33.577c22.731-0.627 44.663-5.222 65.79-13.81l-9.638-24.435c-18.409 7.336-37.128 11.686-56.152 13.056v-80.964c19.395-6.22 33.915-12.28 43.551-18.19 9.638-5.911 16.74-12.685 21.311-20.33 4.567-7.655 6.855-16.949 6.855-27.898zM130.441 309.428c0-9.46 2.779-17.041 8.339-22.761s15.196-11.133 28.912-16.234v72.202c-12.231-1.989-21.498-5.88-27.798-11.663-6.304-5.784-9.454-12.964-9.454-21.543zM231.811 193.571c0 8.952-2.75 16.202-8.247 21.731-5.499 5.538-16.155 11.037-31.967 16.511v-72.567c26.808 3.734 40.215 15.174 40.215 34.324zM431.149 303.645c0-28.357-4.725-49.789-14.176-64.27-9.452-14.492-23.321-21.731-41.605-21.731-17.299 0-30.734 7.399-40.309 22.2s-14.363 36.065-14.363 63.803c0 28.23 4.602 49.494 13.808 63.803 9.202 14.301 22.823 21.449 40.864 21.449 17.912 0 31.691-7.401 41.327-22.2 9.638-14.803 14.455-35.824 14.455-63.054zM346.272 303.645c0-21.148 2.286-37.007 6.859-47.577 4.569-10.568 11.981-15.854 22.239-15.854 20.261 0 30.392 21.137 30.392 63.431 0 42.031-10.131 63.050-30.392 63.050-10.256 0-17.67-5.22-22.239-15.671-4.573-10.443-6.859-26.241-6.859-47.378zM546.605 384.981l-150.297-272.746h-27.242l150.295 272.746h27.245zM594.418 194.314c0-28.23-4.725-49.59-14.176-64.080-9.452-14.492-23.323-21.733-41.605-21.733-17.543 0-31.039 7.399-40.491 22.2-9.452 14.799-14.176 36.010-14.176 63.613 0 28.238 4.602 49.502 13.808 63.803 9.202 14.301 22.823 21.455 40.862 21.455 17.541 0 31.228-7.305 41.050-21.922 9.818-14.608 14.729-35.723 14.729-63.336zM509.354 194.314c0-21.264 2.286-37.151 6.859-47.665 4.569-10.506 12.046-15.759 22.424-15.759 10.379 0 18.037 5.19 22.981 15.577 4.94 10.379 7.414 26.335 7.414 47.845 0 21.273-2.474 37.032-7.414 47.292-4.944 10.269-12.601 15.395-22.981 15.395-10.377 0-17.854-5.126-22.424-15.395-4.573-10.258-6.859-26.016-6.859-47.29zM673.026 182.938c0 16.171 4.291 30.472 12.88 42.91 8.585 12.431 23.998 24.996 46.238 37.681-10.502 11.813-17.637 20.773-21.406 26.866s-6.765 12.431-8.989 19.030c-2.222 6.584-3.334 13.431-3.334 20.521 0 18.651 6.052 33.206 18.162 43.655 12.106 10.443 28.971 15.663 50.592 15.663 20.015 0 35.766-5.19 47.258-15.577 11.489-10.387 17.234-24.838 17.234-43.37 0-13.31-4.202-25.592-12.601-36.85-8.403-11.258-22.303-22.667-41.697-34.226l75.426-72.946c6.918 7.709 12.446 16.757 16.587 27.144 4.137 10.379 7.627 21.731 10.469 34.044h31.134c-8.403-35.566-21.066-62.56-37.99-80.964l55.411-54.288h-42.439l-34.286 33.206c-14.58-13.183-29.405-22.637-44.476-28.357-15.075-5.72-31.875-8.581-50.407-8.581-26.565 0-47.165 6.593-61.805 19.775-14.639 13.187-21.959 31.41-21.959 54.663zM757.533 136.296c29.772 0 54.485 9.578 74.129 28.735l-80.984 79.094c-13.713-8.454-23.415-15.45-29.096-20.988-5.683-5.53-9.886-11.473-12.601-17.809-2.72-6.347-4.078-13.556-4.078-21.645 0-14.547 4.786-26.089 14.363-34.607 9.57-8.518 22.329-12.78 38.267-12.78zM728.807 330.693c0-8.581 2.224-16.765 6.672-24.529 4.448-7.78 12.044-17.138 22.794-28.078 15.938 9.325 27.025 17.938 33.266 25.836 6.236 7.899 9.357 17.002 9.357 27.335 0 9.57-3.183 17.375-9.544 23.413-6.365 6.029-14.858 9.048-25.481 9.048-10.998 0-19.923-2.988-26.78-8.96-6.855-5.968-10.285-13.994-10.285-24.064z" />
<glyph unicode="&#xe910;" glyph-name="plus_circle" d="M186.012 122.012c-179.749 179.749-179.749 472.226 0.002 651.977 179.749 179.749 472.226 179.749 651.975 0s179.749-472.226 0-651.975c-179.751-179.751-472.228-179.751-651.977-0.002zM823.814 759.816c-171.936 171.934-451.69 171.934-623.626-0.002-171.936-171.934-171.938-451.693-0.004-623.628 171.936-171.936 451.695-171.934 623.63 0.002s171.936 451.693 0 623.628zM495.78 432.902v-208.091c0.002-8.952 6.711-15.663 15.659-15.659 8.952-0.002 15.663 6.711 15.663 15.663l-0.002 208.081 208.087 0.006c8.952-0.002 15.663 6.711 15.657 15.657 0.006 8.948-6.705 15.659-15.659 15.659l-208.083 0.008v208.079c-0.002 8.954-6.713 15.663-15.665 15.663-4.469 0.002-8.948-4.477-11.18-6.709-2.236-2.236-6.713-6.713-4.479-8.948l0.002-208.093-208.087 0.008c-4.473-0.006-8.946-4.479-11.186-6.717-2.236-2.236-6.713-6.713-4.479-8.948 0.006-8.948 6.717-15.659 15.665-15.665l208.087 0.006z" />
<glyph unicode="&#xe911;" glyph-name="tick_circle" d="M512-12.802c-254.085 0-460.8 206.715-460.8 460.804 0 254.085 206.715 460.8 460.8 460.8s460.8-206.715 460.8-460.8c0-254.087-206.715-460.804-460.8-460.804zM512 888.766c-243.040 0-440.764-197.726-440.764-440.764s197.724-440.769 440.764-440.769c243.040 0 440.764 197.728 440.764 440.769s-197.724 440.764-440.764 440.764zM729.762 663.126c-4.745 4.745-12.435 4.745-17.181 0l-321.417-321.417-79.745 79.755c-4.745 4.745-12.446 4.745-17.181 0-4.745-4.745-4.745-12.435 0-17.181l88.336-88.343c2.372-2.374 5.485-3.561 8.589-3.561 3.113 0 6.218 1.186 8.591 3.561l330.007 330.007c4.745 4.743 4.745 12.433 0 17.179v0z" />
<glyph unicode="&#xe912;" glyph-name="upload" d="M653.861 365.478l-142.402 142.596-142.588-142.588 21.529-18.743 107.678 107.674v-363.743h26.565v363.733l107.872-107.657zM850.106 561.705l-1.569 0.608-0.332 1.651c-16.208 80.634-90.751 141.439-173.4 141.439-29.055 0-54.229-6.294-76.968-19.241l-2.722-1.548-1.495 2.75c-38.937 71.528-114.248 115.964-196.538 115.964-60.824 0-117.647-23.325-160.004-65.673-42.361-42.355-65.688-99.185-65.688-160.018v-15.065l-1.829-0.811c-59.275-26.276-96.098-82.782-96.098-147.47 0-89.872 70.4-160.272 160.272-160.272h225.692v26.567h-225.692c-73.726 0-133.706 59.98-133.706 133.706 0 62.173 41.224 115.094 100.635 129.776-2.707 11.985-2.707 21.619-2.707 33.571 0 109.797 89.328 199.125 199.125 199.125 41.466 0 81.471-13.044 115.692-37.72 31.965-23.050 56.746-54.51 71.854-91.169 27.902 19.995 59.777 30.964 90.178 30.964 77.961 0 141.951-57.702 149.742-134.59 57.121-14.535 98.347-68.819 98.347-129.956 0-73.726-59.98-133.706-133.706-133.706h-225.69v-26.567h225.69c89.872 0 160.272 70.4 160.272 160.272 0 65.114-39.928 124.355-99.355 147.415z" />
<glyph unicode="&#xe913;" glyph-name="login_username" d="M512 832.205c25.19 0 50.995-4.915 77.21-14.95s49.152-22.938 69.018-38.707c19.866-15.974 36.045-33.997 48.538-54.067 12.698-20.070 18.842-39.936 18.842-59.187v-119.194c0-34.816-7.373-72.909-21.914-114.074s-36.659-73.523-66.355-96.87l207.053-99.123 4.506-1.434c3.482-1.434 7.373-3.686 11.878-6.758s9.011-6.349 13.722-10.035c4.71-3.686 8.602-8.192 11.878-13.517 3.277-5.12 4.915-10.24 4.915-15.36v-72.294c0-12.902-4.506-23.962-13.722-33.178s-20.070-13.722-32.973-13.722h-665.19c-13.312 0-24.576 4.506-33.792 13.722s-13.722 20.275-13.722 33.178v72.294c0 4.506 1.638 9.216 5.12 14.541 3.482 5.12 7.373 9.626 11.469 13.107s9.011 6.963 14.541 10.445c5.53 3.482 9.216 5.734 11.059 6.758 2.048 1.024 3.686 1.638 5.12 2.253l208.486 99.123c-29.696 24.371-52.019 57.549-67.174 99.533s-22.733 79.053-22.733 111.411v119.194c0 25.805 10.445 51.814 31.13 77.824s47.923 47.514 81.306 64.102c33.792 16.794 67.584 24.986 101.786 24.986zM433.971 765.235c-26.214-12.902-47.514-28.672-63.898-47.309s-24.576-36.25-24.576-52.634v-119.194c0-27.238 6.349-58.573 18.842-93.594 12.698-35.021 30.31-61.85 53.043-80.077 13.926-10.854 19.661-25.19 17.408-42.803s-11.264-30.106-27.034-37.683l-208.282-99.328c-13.312-5.939-20.070-15.155-20.070-27.648v-48.538l664.166 0.819v46.285c0 3.482-0.205 6.758-0.819 9.626-0.41 3.072-1.434 5.53-2.662 7.373-1.229 2.048-2.458 3.686-3.686 4.915s-2.662 2.253-4.096 3.277c-1.434 1.024-2.662 1.638-3.686 2.253-1.024 0.41-2.458 1.024-4.506 1.434l-207.053 98.304c-15.77 7.373-24.986 20.070-27.443 38.093-0.41 5.53-0.205 10.854 1.024 15.974s3.277 10.24 6.349 14.95c3.072 4.71 6.349 8.806 10.445 12.288 23.347 17.818 40.755 44.237 52.634 79.053s17.818 66.355 17.818 94.618v119.194c0 12.493-4.915 25.805-14.746 39.936s-22.528 27.034-37.888 38.707c-15.36 11.674-33.382 21.299-53.862 29.082s-40.55 11.469-59.802 11.469c-25.395 0.41-51.2-5.939-77.619-18.842z" />
<glyph unicode="&#xe914;" glyph-name="tick" d="M821.658 694.989c-6.758 6.758-17.613 6.758-24.371 0l-457.114-457.318-113.459 113.459c-6.758 6.758-17.613 6.758-24.371 0s-6.758-17.613 0-24.371l125.542-125.747c3.277-3.277 7.782-5.12 12.288-5.12s8.806 1.638 12.288 5.12l469.402 469.402c6.554 6.758 6.554 17.818-0.205 24.576v0 0z" />
<glyph unicode="&#xe915;" glyph-name="cyberbanking" d="M873.677 761.344h-723.354c-18.022 0-32.768-14.746-32.768-32.768v-473.907c0-18.022 14.746-32.768 32.768-32.768h251.494l-20.48-71.68h-56.525c-4.301 0-7.782-3.482-7.782-7.782s3.482-7.782 7.782-7.782h374.17c4.301 0 7.782 3.482 7.782 7.782s-3.482 7.782-7.782 7.782h-56.525l-20.48 71.68h251.494c18.022 0 32.768 14.746 32.768 32.768v473.907c0.205 18.022-14.541 32.768-32.563 32.768zM626.278 150.221h-228.557l20.48 71.68h187.802l20.275-71.68zM890.88 254.669c0-9.421-7.782-17.203-17.203-17.203h-723.354c-9.421 0-17.203 7.782-17.203 17.203v473.907c0 9.421 7.782 17.203 17.203 17.203h723.354c9.421 0 17.203-7.782 17.203-17.203v-473.907zM838.861 702.976h-653.722c-10.65 0-19.046-8.192-19.046-18.432v-385.638c0-10.24 8.602-18.432 19.046-18.432h653.926c10.65 0 19.046 8.192 19.046 18.432v385.638c0 10.035-8.602 18.432-19.251 18.432zM842.547 298.906c0-1.638-1.638-2.867-3.482-2.867h-653.926c-1.843 0-3.482 1.229-3.482 2.867v385.638c0 1.434 1.434 2.867 3.482 2.867h653.926c1.843 0 3.482-1.229 3.482-2.867v-385.638z" />
<glyph unicode="&#xe916;" glyph-name="note" d="M512 32.256c-229.171 0-415.744 186.573-415.744 415.744s186.573 415.744 415.744 415.744 415.744-186.573 415.744-415.744-186.573-415.744-415.744-415.744zM512 826.47c-208.691 0-378.47-169.779-378.47-378.47s169.779-378.47 378.47-378.47 378.47 169.779 378.47 378.47c0 208.691-169.779 378.47-378.47 378.47zM512 667.341c17.203 0 31.334-14.131 31.334-31.334s-14.131-30.72-31.334-30.72c-17.203 0-31.13 13.517-31.13 30.72s13.926 31.334 31.13 31.334zM510.157 228.864c-11.469 0.614-22.938 8.397-22.938 22.938v295.731c0 16.589 12.083 24.986 24.781 24.986 12.083 0.614 24.781-7.782 24.781-24.986v-295.731c0-15.974-13.312-23.757-26.624-22.938v0z" />
<glyph unicode="&#xe917;" glyph-name="docu_format" d="M954.982 798.003h-394.65c-6.349 0-11.674-5.325-11.674-11.674v-182.886c0-6.349 5.325-11.674 11.674-11.674h394.65c6.349 0 11.674 5.325 11.674 11.674v182.886c0 6.554-5.325 11.674-11.674 11.674zM735.027 662.63c-2.662-0.819-5.734-1.434-9.216-1.434-5.325 0-9.216 1.434-11.878 4.301-2.458 2.867-3.891 7.373-3.891 13.517v39.322h-9.011v3.277l9.011 2.458 2.867 13.722h2.867v-14.746h17.818v-4.71h-17.818v-38.298c0-4.71 0.819-8.192 2.458-10.24s4.096-3.277 7.578-3.277c3.482 0 6.554 0.205 9.011 0.819v-4.71zM753.459 662.426h-5.53v60.621h5.53v-60.621zM753.459 735.949c-0.614-1.024-1.638-1.434-2.662-1.434-2.253 0-3.482 1.843-3.482 5.325s1.229 5.325 3.482 5.325c1.229 0 2.048-0.41 2.662-1.434s1.024-2.253 1.024-3.891c0-1.434-0.41-2.867-1.024-3.891zM802.611 743.526c-2.867 1.024-5.939 1.434-8.806 1.434-4.301 0-7.373-1.229-9.216-3.891-1.843-2.458-2.662-6.758-2.662-12.493v-5.734h14.131v-4.71h-14.131v-55.91h-5.53v56.115h-11.264v3.277l11.264 2.048v4.71c0 7.373 1.434 12.902 4.096 16.384s7.168 5.12 13.312 5.12c3.277 0 6.758-0.41 10.035-1.434l-1.229-4.915zM954.982 535.45h-394.65c-6.349 0-11.674-5.325-11.674-11.674v-182.886c0-6.349 5.325-11.674 11.674-11.674h394.65c6.349 0 11.674 5.325 11.674 11.674v182.886c0 6.554-5.325 11.674-11.674 11.674zM756.941 464.384l-12.493-0.819c3.277-4.096 4.915-8.806 4.915-13.722 0-5.939-1.843-10.65-5.734-14.131-3.891-3.686-9.011-5.53-15.565-5.53-2.662 0-4.71 0.205-5.734 0.41-2.253-1.229-3.891-2.458-4.915-4.096s-1.638-3.277-1.638-4.915c0-1.843 0.819-3.277 2.253-4.301s3.891-1.434 7.373-1.434h10.65c6.554 0 11.674-1.434 15.155-3.891 3.482-2.662 5.12-6.554 5.12-11.878 0-6.349-2.662-11.264-7.782-14.746s-12.493-5.12-22.118-5.12c-7.578 0-13.517 1.434-17.613 4.506-4.096 2.867-6.349 6.963-6.349 12.288 0 4.096 1.229 7.578 3.891 10.445 2.662 2.662 6.144 4.71 10.445 5.734-1.843 0.819-3.277 1.843-4.301 3.277s-1.638 3.072-1.638 4.915c0 4.096 2.662 7.578 7.782 10.65-3.482 1.434-6.349 3.686-8.192 6.758-2.048 3.072-2.867 6.758-2.867 10.65 0 6.144 1.843 10.854 5.734 14.541s9.011 5.53 15.565 5.53c3.891 0 6.963-0.41 9.216-1.229h19.251v-3.891zM774.963 407.45h-5.53v60.621h5.53v-60.621zM774.758 480.973c-0.614-1.024-1.638-1.434-2.662-1.434-2.253 0-3.482 1.843-3.482 5.325s1.229 5.325 3.482 5.325c1.229 0 2.048-0.41 2.662-1.434s1.024-2.253 1.024-3.891c0-1.638-0.41-2.867-1.024-3.891zM823.91 488.55c-2.867 1.024-5.939 1.434-8.806 1.434-4.301 0-7.373-1.229-9.216-3.891-1.843-2.458-2.662-6.758-2.662-12.493v-5.734h14.131v-4.71h-14.131v-55.91h-5.53v55.91h-11.264v3.277l11.264 2.048v4.71c0 7.373 1.434 12.902 4.096 16.384s7.168 5.12 13.312 5.12c3.277 0 6.758-0.41 10.035-1.434l-1.229-4.71zM708.198 397.21c0-8.397 6.144-12.493 18.432-12.493 15.77 0 23.757 5.12 23.757 15.155 0 3.686-1.229 6.349-3.686 7.987s-6.554 2.458-12.083 2.458h-9.83c-11.059 0-16.589-4.301-16.589-13.107zM716.8 460.902c-2.662-2.867-4.096-6.554-4.096-11.674 0-4.71 1.434-8.397 4.301-10.854 2.867-2.662 6.554-3.891 11.264-3.891 5.12 0 8.806 1.229 11.674 3.891 2.662 2.662 4.096 6.349 4.096 11.059 0 5.12-1.434 9.011-4.096 11.674s-6.554 3.891-11.674 3.891c-4.915 0-8.602-1.434-11.469-4.096zM466.534 807.424h-394.65c-6.349 0-11.674-5.325-11.674-11.674v-182.886c0-6.349 5.325-11.674 11.674-11.674h394.65c6.349 0 11.674 5.325 11.674 11.674v182.886c0 6.349-5.325 11.674-11.674 11.674zM206.029 659.968c0-5.12-1.229-8.806-3.482-11.674-2.253-2.662-5.734-4.096-10.035-4.096-2.867 0-5.53 0.41-7.578 1.434v4.71c2.458-0.819 4.915-1.024 7.168-1.024 5.53 0 8.397 3.277 8.397 9.83v73.114h5.53v-72.294zM206.029 745.37c-0.614-1.024-1.638-1.434-2.662-1.434-2.253 0-3.482 1.843-3.482 5.325s1.229 5.325 3.482 5.325c1.229 0 2.048-0.41 2.662-1.434s1.024-2.253 1.024-3.891c0-1.638-0.41-3.072-1.024-3.891zM270.541 678.81c-4.506-5.53-10.65-8.192-18.432-8.192-9.216 0-15.974 3.482-20.275 10.445h-0.41l0.205-4.71c0.205-2.662 0.205-5.734 0.205-9.011v-23.142h-5.53v88.064h4.71l1.024-8.602h0.41c4.096 6.554 10.854 9.83 19.866 9.83 8.192 0 14.336-2.662 18.637-7.987s6.349-13.107 6.349-23.552c0-9.83-2.253-17.613-6.758-23.142zM341.197 728.576l-12.493-0.819c3.277-4.096 4.915-8.806 4.915-13.722 0-5.939-1.843-10.65-5.734-14.131-3.891-3.686-9.011-5.53-15.565-5.53-2.662 0-4.71 0.205-5.734 0.41-2.253-1.229-3.891-2.458-4.915-4.096-1.229-1.638-1.638-3.277-1.638-4.915 0-1.843 0.819-3.277 2.253-4.301 1.434-0.819 3.891-1.434 7.373-1.434h10.65c6.554 0 11.674-1.229 15.155-3.891s5.12-6.554 5.12-11.878c0-6.349-2.662-11.264-7.782-14.746s-12.493-5.12-22.118-5.12c-7.578 0-13.517 1.434-17.613 4.506-4.096 2.867-6.349 6.963-6.349 12.288 0 4.096 1.229 7.578 3.891 10.445 2.662 2.662 6.144 4.71 10.445 5.734-1.843 0.819-3.277 1.843-4.301 3.277s-1.638 3.072-1.638 4.915c0 4.096 2.662 7.578 7.782 10.65-3.482 1.434-6.349 3.686-8.192 6.758-2.048 3.072-2.867 6.758-2.867 10.65 0 6.144 1.843 10.854 5.734 14.541s9.011 5.53 15.565 5.53c3.891 0 6.963-0.41 9.216-1.229h19.251v-3.891zM301.056 725.094c-2.662-2.867-4.096-6.554-4.096-11.674 0-4.71 1.434-8.397 4.301-10.854 2.867-2.662 6.554-3.891 11.264-3.891 5.12 0 8.806 1.229 11.674 3.891 2.662 2.662 4.096 6.349 4.096 11.059 0 5.12-1.434 9.011-4.096 11.674s-6.554 3.891-11.674 3.891c-4.915 0-8.806-1.434-11.469-4.096zM252.314 728.576c-6.963 0-12.288-1.843-15.565-5.734s-4.915-10.24-4.915-19.046v-1.843c0-9.421 1.638-16.179 4.71-20.275s8.397-6.144 15.565-6.144c6.144 0 11.059 2.253 14.336 6.963s5.12 11.059 5.12 19.456c-0.205 17.613-6.554 26.624-19.251 26.624zM292.25 661.402c0-8.397 6.144-12.493 18.432-12.493 15.77 0 23.757 5.12 23.757 15.155 0 3.686-1.229 6.349-3.686 7.987s-6.554 2.458-12.083 2.458h-9.83c-11.059 0-16.589-4.301-16.589-13.107zM226.509 473.6c-6.963 0-12.288-1.843-15.565-5.734s-4.915-10.24-4.915-19.046v-1.843c0-9.421 1.638-16.179 4.71-20.275s8.397-6.144 15.565-6.144c6.144 0 11.059 2.253 14.336 6.963s5.12 11.059 5.12 19.456c0 17.613-6.349 26.624-19.251 26.624zM466.534 544.666h-394.65c-6.349 0-11.674-5.325-11.674-11.674v-182.886c0-6.349 5.325-11.674 11.674-11.674h394.65c6.349 0 11.674 5.325 11.674 11.674v182.886c0 6.554-5.325 11.674-11.674 11.674zM244.736 423.834c-4.506-5.53-10.65-8.192-18.432-8.192-9.216 0-15.974 3.482-20.275 10.445h-0.41l0.205-4.71c0.205-2.662 0.205-5.734 0.205-9.011v-23.142h-5.53v88.064h4.71l1.024-8.602h0.41c4.096 6.554 10.854 9.83 19.866 9.83 8.192 0 14.336-2.662 18.637-7.987s6.349-13.107 6.349-23.552c0-9.83-2.253-17.613-6.758-23.142zM315.802 416.666h-3.686l-1.434 9.216h-0.41c-4.506-6.963-11.264-10.445-19.866-10.445-8.397 0-14.746 2.662-19.046 7.782-4.506 5.12-6.554 12.698-6.554 22.733 0 10.445 2.253 18.432 6.554 23.962s10.65 8.397 19.046 8.397c4.301 0 8.192-0.819 11.264-2.458 3.277-1.638 5.939-4.301 8.602-8.192h0.41c-0.205 4.71-0.41 9.216-0.41 13.722v21.914h5.53v-86.63zM364.954 497.971c-2.867 1.024-5.939 1.434-8.806 1.434-4.301 0-7.373-1.229-9.216-3.891-1.843-2.458-2.662-6.758-2.662-12.493v-5.734h14.131v-4.71h-14.131v-55.91h-5.53v55.91h-11.264v3.277l11.264 2.048v4.71c0 7.373 1.434 12.902 4.096 16.384s7.168 5.12 13.312 5.12c3.277 0 6.758-0.41 10.035-1.434l-1.229-4.71zM290.406 473.6c-6.554 0-11.469-2.253-14.95-6.963-3.277-4.71-4.915-11.469-4.915-20.275 0-17.203 6.554-25.805 19.866-25.805 6.758 0 11.878 2.048 14.95 5.939 3.277 3.891 4.71 10.445 4.71 19.661v1.024c0 9.421-1.638 16.179-4.71 20.275s-7.987 6.144-14.95 6.144zM333.619 129.331c0-8.397 6.144-12.493 18.432-12.493 15.77 0 23.757 5.12 23.757 15.155 0 3.686-1.229 6.349-3.686 7.987s-6.554 2.458-12.083 2.458h-9.83c-11.059 0-16.589-4.301-16.589-13.107zM466.534 263.68h-394.65c-6.349 0-11.674-5.325-11.674-11.674v-182.886c0-6.349 5.325-11.674 11.674-11.674h394.65c6.349 0 11.674 5.325 11.674 11.674v182.886c0 6.349-5.325 11.674-11.674 11.674zM244.736 146.739c-4.506-5.53-10.65-8.192-18.432-8.192-9.216 0-15.974 3.482-20.275 10.445h-0.41l0.205-4.71c0.205-2.662 0.205-5.734 0.205-9.011v-23.142h-5.53v88.064h4.71l1.024-8.602h0.41c4.096 6.554 10.854 9.83 19.866 9.83 8.192 0 14.336-2.662 18.637-7.987s6.349-13.107 6.349-23.552c0-9.83-2.253-17.613-6.758-23.142zM315.802 139.571h-5.53v39.322c0 6.144-1.229 10.445-3.891 13.312-2.458 2.867-6.554 4.096-11.878 4.096-7.168 0-12.493-1.843-15.77-5.53s-5.12-9.626-5.12-17.818v-33.382h-5.325v60.621h4.71l1.024-8.397h0.41c3.891 6.349 10.854 9.421 20.89 9.421 13.722 0 20.48-7.373 20.48-22.118v-39.526zM382.566 196.506l-12.493-0.819c3.277-4.096 4.915-8.806 4.915-13.722 0-5.939-1.843-10.65-5.734-14.131-3.891-3.686-9.011-5.53-15.565-5.53-2.662 0-4.71 0.205-5.734 0.41-2.253-1.229-3.891-2.458-4.915-4.096-1.229-1.638-1.638-3.277-1.638-4.915 0-1.843 0.819-3.277 2.253-4.301 1.434-0.819 3.891-1.434 7.373-1.434h10.65c6.554 0 11.674-1.434 15.155-3.891 3.482-2.662 5.12-6.554 5.12-11.878 0-6.349-2.662-11.264-7.782-14.746s-12.493-5.12-22.118-5.12c-7.578 0-13.517 1.434-17.613 4.506-4.096 2.867-6.349 6.963-6.349 12.288 0 4.096 1.229 7.578 3.891 10.445 2.662 2.662 6.144 4.71 10.445 5.734-1.843 0.819-3.277 1.843-4.301 3.277s-1.638 3.072-1.638 4.915c0 4.096 2.662 7.578 7.782 10.65-3.482 1.434-6.349 3.686-8.192 6.758-2.048 3.072-2.867 6.758-2.867 10.65 0 6.144 1.843 10.854 5.734 14.541s9.011 5.53 15.565 5.53c3.891 0 6.963-0.41 9.216-1.229h19.251v-3.891zM226.509 196.506c-6.963 0-12.288-1.843-15.565-5.734s-4.915-10.24-4.915-19.046v-1.843c0-9.421 1.638-16.179 4.71-20.275s8.397-6.144 15.565-6.144c6.144 0 11.059 2.253 14.336 6.963s5.12 11.059 5.12 19.456c0 17.613-6.349 26.624-19.251 26.624zM342.426 193.024c-2.662-2.867-4.096-6.554-4.096-11.674 0-4.71 1.434-8.397 4.301-10.854 2.867-2.662 6.554-3.891 11.264-3.891 5.12 0 8.806 1.229 11.674 3.891 2.662 2.662 4.096 6.349 4.096 11.059 0 5.12-1.434 9.011-4.096 11.674s-6.554 3.891-11.674 3.891c-4.915 0-8.806-1.434-11.469-4.096z" />
<glyph unicode="&#xe918;" glyph-name="ip2p_dining" d="M823.769 752.49c-2.589 6.056-7.145 10.16-12.835 11.557-7.94 1.942-17.562-1.272-27.111-9.069l-508.297-510.505c-28-28.121-37.747-53.084-28.971-74.191h-0.002c8.88-21.33 33.659-29.123 48.148-29.153 0.729 0 4.188 0.213 4.907 0.313 30.573 4.305 58.001 42.541 87.042 83.024 8.942 12.476 18.19 25.377 26.812 35.811l2.679 3.256c25.487 30.978 57.199 69.526 79.831 60 36.196-15.417 85.271 10.152 150.024 78.146 29.202 30.702 78.010 106.324 118.694 183.896 44.335 84.539 66.974 148.498 59.079 166.914zM623.116 423.502c-60.185-63.234-91.802-72.675-105.294-72.675-3.59 0-6.607 0.582-9.49 1.833-6.205 2.662-12.73 4.018-19.403 3.967-36.96 0-70.337-40.468-99.783-76.171-8.688-10.519-17.877-23.222-28.127-37.54l-0.145-0.203c-20.48-28.502-48.529-67.535-65.616-69.954l-0.279-0.039-0.391 0.049c-6.113 0.055-16.396 3.811-18.831 9.671-2.476 5.978 2.058 19.575 22.204 39.809l490.488 492.691-3.262-8.819c-27.052-73.146-105.49-223.173-162.071-282.62zM385.95 547.795c5.292-6.195 14.635-6.939 20.836-1.647 6.199 5.294 6.939 14.643 1.645 20.842l-126.72 148.582c-2.922 3.42-7.078 5.177-11.258 5.177-3.396 0-6.808-1.159-9.587-3.535-6.195-5.292-6.945-14.643-1.667-20.849l126.751-148.572zM327.797 730.259l97.935-106.285c18.547-20.136 22.565-50.346 9.998-75.172-3.176-6.236-2.044-13.791 2.814-18.805l29.245-30.695c7.75-7.991 16.986-6.136 22.694-0.745 5.822 5.497 8.526 15.284 0.711 23.785l-21.4 22.567 0.414 1.18c12.225 34.877 4.44 73.236-20.312 100.104l-97.97 106.377c-5.003 4.893-10.74 7.51-16.239 7.51-1.536 0-3.054-0.205-4.532-0.621-5.196-1.464-9.212-5.489-10.48-10.504-1.544-6.105 0.922-12.683 6.949-18.524l0.172-0.172zM765.379 238.361l-111.096 115.722c-7.711 6.785-16.933 4.080-22.186-1.368-5.454-5.657-7.578-14.926-0.031-22.89l109.814-114.383c20.763-21.107 25.414-35.191 22.837-41.327-2.247-5.411-11.16-9.064-17.525-9.751v-16.542l-4.096-0.043-0.362 17.136c-16.050 7.365-59.972 52.124-137.722 140.325-3.619 4.653-8.284 7.098-13.373 7.098-0.745 0-1.499-0.051-2.261-0.158-6.326-0.877-12.132-5.304-14.449-11.022-1.968-4.858-1.122-10.007 2.386-14.496 56.65-64.535 135.217-150.913 162.505-154.888 0.748-0.106 4.532-0.373 5.325-0.373 14.993 0 40.649 7.995 49.865 30.026 9.118 21.77-0.846 47.647-29.614 76.915l-0.016 0.018zM376.437 480.039c9.626 0 19.157 1.366 28.328 4.057l1.227 0.36 0.862-0.946c5.231-5.728 8.315-9.417 11.577-13.322 2.531-3.029 5.153-6.164 8.995-10.521 7.1-7.105 15.522-4.385 20.554 0.131 6.152 5.523 9.073 15.217 2.771 23.067-4.295 4.862-7.709 8.845-10.947 12.622-5.108 5.958-9.935 11.586-17.138 19.382-4.739 5.202-12.268 6.75-18.733 3.877-25.815-11.512-57.022-5.261-75.885 15.204l-98.269 106.586c-9.099 10.195-20.134 9.992-26.327 4.514-5.951-5.265-7.574-15.577 2.22-26.745l98.212-106.609c18.545-20.12 44.99-31.658 72.552-31.658z" />
<glyph unicode="&#xe919;" glyph-name="ip2p_facetoface" d="M360.7 458.873c-64.95 0-117.791-52.845-117.791-117.801 0-6.445 5.245-11.692 11.69-11.692s11.692 5.247 11.692 11.692c0 52.062 42.353 94.419 94.409 94.419 6.445 0 11.69 5.245 11.69 11.692 0 6.445-5.243 11.69-11.69 11.69zM523.923 256.969l1.618 3.287c12.411 25.248 18.704 52.437 18.704 80.816 0 49.025-19.094 95.115-53.762 129.784-34.658 34.671-80.751 53.762-129.784 53.762-49.029 0-95.117-19.091-129.774-53.762-34.671-34.66-53.764-80.753-53.764-129.784 0-49.027 19.094-95.117 53.762-129.778 34.66-34.669 80.751-53.76 129.776-53.76s95.115 19.091 129.784 53.76c6.259 6.25 12.155 13.058 17.527 20.242l3.541 4.735 110.914-110.916c6.070-6.066 9.413-14.129 9.413-22.706 0-8.575-3.346-16.642-9.423-22.718l-0.629-0.625c-6.046-6.048-14.113-9.386-22.7-9.386s-16.654 3.338-22.714 9.398l-70.844 70.844c-2.275 2.275-5.27 3.414-8.262 3.414-2.996 0-5.99-1.141-8.272-3.418-2.208-2.206-3.424-5.145-3.424-8.268s1.217-6.060 3.426-8.27l70.846-70.851c10.469-10.457 24.41-16.22 39.252-16.22s28.783 5.763 39.248 16.23l0.608 0.61c10.492 10.494 16.267 24.433 16.267 39.256s-5.771 28.76-16.253 39.24l-115.081 115.081zM473.954 227.828c-30.257-30.251-70.48-46.909-113.254-46.909-42.777 0-82.993 16.66-113.244 46.909s-46.911 70.466-46.911 113.244c0 42.77 16.66 82.989 46.909 113.254 30.263 30.251 70.482 46.909 113.246 46.909 42.77 0 82.991-16.66 113.254-46.907 30.251-30.265 46.907-70.486 46.907-113.256 0-42.779-16.658-82.995-46.907-113.244zM835.146 849.449h-530.956c-6.445 0-11.69-5.245-11.69-11.69v-277.387c0-6.445 5.245-11.69 11.69-11.69s11.692 5.245 11.692 11.69v265.695h507.574v-507.574h-239.065c-6.445 0-11.692-5.245-11.692-11.69s5.247-11.692 11.692-11.692h250.755c6.445 0 11.692 5.247 11.692 11.692v530.956c0 6.445-5.245 11.69-11.692 11.69zM462.619 762.106c0 6.445-5.245 11.692-11.69 11.692h-76.677c-6.445 0-11.692-5.247-11.692-11.692v-76.677c0-6.445 5.247-11.692 11.692-11.692h64.985v-132.979c0-6.445 5.247-11.692 11.692-11.692h144.669c6.445 0 11.692 5.247 11.692 11.692v144.671c0 6.445-5.247 11.69-11.692 11.69h-132.979v64.987zM439.237 697.119h-53.295v53.295h53.295v-53.295zM583.905 673.737v-121.287h-121.289v121.287h121.289zM577.599 451.099v-67.246c0-6.445 5.247-11.69 11.692-11.69h67.246c6.447 0 11.692 5.245 11.692 11.69v55.556h107.377c6.445 0 11.692 5.245 11.692 11.69v144.671c0 6.445-5.247 11.69-11.692 11.69h-119.069c-6.445 0-11.692-5.245-11.692-11.69v-132.979h-55.554c-6.445 0-11.692-5.247-11.692-11.692zM668.23 584.075h95.685v-121.287h-95.685v121.287zM600.984 439.409h43.862v-43.864h-43.862v43.864zM656.538 650.478h119.069c6.445 0 11.692 5.245 11.692 11.69v99.938c0 6.445-5.247 11.692-11.692 11.692h-119.069c-6.445 0-11.692-5.247-11.692-11.692v-99.938c0-6.445 5.247-11.69 11.692-11.69zM668.23 750.414h95.685v-76.554h-95.685v76.554z" />
<glyph unicode="&#xe91a;" glyph-name="ip2p_frdlist" d="M600.066 288.748c-56.029 46.062-115.972 79.849-146.717 95.889l-6.175 3.226v90.575l3.279 3.351c12.038 12.308 18.668 28.606 18.668 45.9v109.701c0 63.388-51.579 114.96-114.983 114.96h-23.46c-63.392 0-114.96-51.573-114.96-114.96v-109.701c0-17.291 6.629-33.591 18.668-45.9l3.279-3.351v-90.575l-6.181-3.226c-30.738-16.036-90.675-49.822-146.717-95.889-16.13-13.212-25.375-32.741-25.375-53.598v-75.258c0.36-8.913 7.764-16.243 16.855-16.243 8.946 0 16.226 7.285 16.226 16.243v75.258c0 11.102 4.825 21.531 13.244 28.6 61.114 50.092 127.201 85.283 152.783 98.089 7.258 3.627 11.938 11.074 11.938 18.977v105.728c0 5.327-2.705 10.496-6.892 13.167-9.316 6.066-15.053 16.765-15.053 27.978v109.701c0 45.652 37.009 82.794 82.491 82.794h23.466c45.488 0 82.498-37.143 82.498-82.794v-109.701c0-10.922-5.478-21.277-14.66-27.703-4.614-3.138-7.285-8.126-7.285-13.441v-105.728c0-8.004 4.637-15.428 11.815-18.913 13.89-6.791 86.393-43.385 152.816-98.079 8.62-7.24 13.324-17.4 13.324-28.674v-75.258c0-8.956 7.285-16.243 16.237-16.243 8.958 0 16.243 7.285 16.243 16.243v75.258c0 20.799-9.249 40.337-25.373 53.598zM939.233 288.748c-56.029 46.062-115.97 79.849-146.715 95.889l-6.175 3.226v90.575l3.279 3.351c12.038 12.308 18.668 28.606 18.668 45.9v109.701c0 63.388-51.579 114.96-114.983 114.96h-23.46c-63.394 0-114.96-51.573-114.96-114.96v-109.701c0-17.291 6.629-33.591 18.668-45.9l3.277-3.351v-90.575l-6.179-3.226c-30.74-16.036-90.675-49.822-146.717-95.889-16.13-13.212-25.375-32.743-25.375-53.598v-75.258c0.358-8.913 7.762-16.243 16.855-16.243 8.946 0 16.224 7.285 16.224 16.243v75.258c0 11.102 4.827 21.531 13.246 28.6 61.114 50.092 127.201 85.283 152.783 98.089 7.256 3.627 11.938 11.074 11.938 18.977v105.728c0 5.327-2.705 10.496-6.892 13.167-9.316 6.066-15.053 16.765-15.053 27.978v109.701c0 45.652 37.009 82.794 82.491 82.794h23.464c45.49 0 82.498-37.143 82.498-82.794v-109.701c0-10.922-5.478-21.277-14.66-27.703-4.612-3.138-7.285-8.126-7.285-13.441v-105.728c0-8.004 4.637-15.428 11.813-18.913 13.892-6.791 86.393-43.385 152.816-98.079 8.62-7.24 13.324-17.4 13.324-28.674v-75.258c0-8.956 7.285-16.243 16.237-16.243 8.958 0 16.243 7.285 16.243 16.243v75.258c0.004 20.799-9.245 40.337-25.371 53.598z" />
<glyph unicode="&#xe91b;" glyph-name="ip2p_movies" d="M869.886 102.609c-55.366 0-100.434 45.083-100.434 100.514 0 0.127-0.063 0.186-0.063 0.299 62.241 65.366 100.497 153.663 100.497 250.868 0 200.821-163.351 364.173-364.173 364.173-200.825 0-364.173-163.353-364.173-364.173 0-200.825 163.351-364.173 364.173-364.173 92.16 0 176.427 34.456 240.679 91.109 10.363-58.802 61.755-103.684 123.494-103.684 7.002 0 12.573 5.573 12.573 12.575 0.002 6.92-5.569 12.493-12.573 12.493v0zM166.687 454.287c0 186.962 152.064 339.026 339.026 339.026s339.104-152.064 339.104-339.026c0-186.962-152.142-339.106-339.104-339.106s-339.026 152.144-339.026 339.106v0zM505.715 768.244c-173.101 0-313.956-140.857-313.956-313.956 0-173.117 140.855-313.956 313.956-313.956 173.115 0 313.956 140.841 313.956 313.956 0 173.099-140.841 313.956-313.956 313.956v0zM505.715 165.401c-159.24 0-288.809 129.571-288.809 288.887 0 159.24 129.569 288.809 288.809 288.809 159.316 0 288.887-129.569 288.887-288.809 0-159.316-129.571-288.887-288.887-288.887v0zM512.002 523.192c-40.854 0-74.088 33.235-74.088 74.082 0 40.845 33.235 74.080 74.088 74.080 40.839 0 74.074-33.235 74.074-74.080 0.002-40.847-33.235-74.082-74.074-74.082zM512.002 646.396c-27.093 0-49.129-22.034-49.129-49.121s22.036-49.123 49.129-49.123c27.081 0 49.115 22.036 49.115 49.123s-22.034 49.121-49.115 49.121zM512.002 237.22c-40.854 0-74.088 33.235-74.088 74.080 0 40.847 33.235 74.082 74.088 74.082 40.839 0 74.074-33.235 74.074-74.082 0.002-40.845-33.235-74.080-74.074-74.080zM512.002 360.423c-27.093 0-49.129-22.036-49.129-49.123s22.036-49.121 49.129-49.121c27.081 0 49.115 22.034 49.115 49.121s-22.034 49.123-49.115 49.123zM664.918 383.549c-40.841 0-74.074 33.235-74.074 74.080 0 40.847 33.235 74.082 74.074 74.082 40.851 0 74.086-33.235 74.086-74.082 0.002-40.845-33.235-74.080-74.086-74.080zM664.918 506.751c-27.081 0-49.115-22.036-49.115-49.123s22.034-49.121 49.115-49.121c27.093 0 49.127 22.034 49.127 49.121s-22.034 49.123-49.127 49.123zM363.229 383.549c-40.841 0-74.076 33.235-74.076 74.080 0 40.847 33.235 74.082 74.076 74.082 40.851 0 74.086-33.235 74.086-74.082 0.002-40.845-33.233-74.080-74.086-74.080zM363.229 506.751c-27.081 0-49.115-22.036-49.115-49.123s22.034-49.121 49.115-49.121c27.093 0 49.127 22.034 49.127 49.121s-22.034 49.123-49.127 49.123z" />
<glyph unicode="&#xe91c;" glyph-name="ebills" d="M825.874 914.944h-627.749c-21.862 0-39.647-17.785-39.647-39.647v-857.926c0-21.862 17.785-39.647 39.647-39.647h627.751c21.862 0 39.647 17.785 39.647 39.647v857.926c-0.002 21.862-17.787 39.647-39.649 39.647zM843.42 17.373c0-9.675-7.87-17.545-17.545-17.545h-627.749c-9.675 0-17.545 7.87-17.545 17.545v857.924c0 9.675 7.87 17.545 17.545 17.545h627.751c9.675 0 17.545-7.87 17.545-17.545v-857.924zM390.074 756.574c35.041-5.478 59.515-25.825 59.515-49.482 0-5.069 4.125-9.191 9.191-9.191 5.071 0 9.196 4.125 9.196 9.191 0 34.404-33.54 63.189-79.751 68.446l-6.124 0.698v25.334c0 5.071-4.127 9.196-9.196 9.196-5.071 0-9.196-4.127-9.196-9.196v-25.332l-6.126-0.698c-46.207-5.257-79.747-34.044-79.747-68.446 0-34.2 33.54-62.872 79.751-68.168l6.121-0.7v-102.068l-7.973 1.249c-35.041 5.474-59.515 25.817-59.515 49.474 0 5.071-4.125 9.196-9.191 9.196-5.069 0-9.191-4.127-9.191-9.196 0-34.4 33.54-63.185 79.747-68.446l6.126-0.698v-25.332c0-5.065 4.127-9.183 9.196-9.183 5.071 0 9.196 4.121 9.196 9.183v25.332l6.124 0.698c46.211 5.261 79.751 34.048 79.751 68.446 0 34.198-33.542 62.87-79.753 68.172l-6.121 0.702v102.068l7.971-1.249zM363.71 656.378l-7.973 1.249c-35.041 5.478-59.515 25.819-59.515 49.465 0 23.656 24.474 44.003 59.515 49.482l7.973 1.249v-101.446zM390.074 636.344c35.041-5.478 59.515-25.819 59.515-49.465 0-23.656-24.474-43.999-59.515-49.474l-7.971-1.249v101.435l7.971-1.247zM761.473 439.443h-280.207c-6.095 0-11.051-4.956-11.051-11.049 0-6.095 4.956-11.051 11.051-11.051h280.205c6.095 0 11.051 4.956 11.051 11.051 0.002 6.093-4.954 11.049-11.049 11.049zM761.473 340.406h-280.207c-6.095 0-11.051-4.956-11.051-11.049 0-6.095 4.956-11.051 11.051-11.051h280.205c6.095 0 11.051 4.956 11.051 11.051 0.002 6.093-4.954 11.049-11.049 11.049zM761.473 241.369h-280.207c-6.095 0-11.051-4.956-11.051-11.051 0-6.093 4.956-11.049 11.051-11.049h280.205c6.095 0 11.051 4.956 11.051 11.049 0.002 6.093-4.954 11.051-11.049 11.051zM761.473 142.33h-148.974c-6.095 0-11.051-4.956-11.051-11.049 0-6.095 4.956-11.051 11.051-11.051h148.974c6.095 0 11.051 4.956 11.051 11.051 0 6.091-4.956 11.049-11.051 11.049z" />
<glyph unicode="&#xe91d;" glyph-name="ip2p_others" d="M445.045 472.807h-227.705c-21.455 0-38.914 17.451-38.914 38.914v227.699c0 21.463 17.459 38.914 38.914 38.914h227.705c21.457 0 38.908-17.451 38.908-38.914v-227.699c0-21.461-17.451-38.914-38.908-38.914zM217.34 753.375c-7.696 0-13.953-6.263-13.953-13.955v-227.699c0-7.69 6.257-13.953 13.953-13.953h227.705c7.69 0 13.949 6.263 13.949 13.953v227.699c0 7.692-6.259 13.955-13.949 13.955h-227.705zM806.658 472.807h-227.703c-21.455 0-38.908 17.451-38.908 38.914v227.699c0 21.463 17.453 38.914 38.908 38.914h227.705c21.457 0 38.914-17.451 38.914-38.914v-227.699c0-21.461-17.459-38.914-38.916-38.914zM578.955 753.375c-7.69 0-13.949-6.263-13.949-13.955v-227.699c0-7.69 6.259-13.953 13.949-13.953h227.705c7.696 0 13.955 6.263 13.955 13.953v227.699c0 7.692-6.259 13.955-13.955 13.955h-227.705zM445.045 117.664h-227.705c-21.455 0-38.914 17.453-38.914 38.902v227.713c0 21.461 17.459 38.914 38.914 38.914h227.705c21.457 0 38.908-17.453 38.908-38.914v-227.711c0-21.449-17.451-38.904-38.908-38.904zM217.34 398.234c-7.696 0-13.953-6.265-13.953-13.955v-227.711c0-7.69 6.257-13.943 13.953-13.943h227.705c7.69 0 13.949 6.253 13.949 13.943v227.711c0 7.69-6.259 13.955-13.949 13.955h-227.705zM806.658 117.664h-227.703c-21.455 0-38.908 17.453-38.908 38.902v227.713c0 21.461 17.453 38.914 38.908 38.914h227.705c21.457 0 38.914-17.453 38.914-38.914v-227.711c0-21.449-17.459-38.904-38.916-38.904zM578.955 398.234c-7.69 0-13.949-6.265-13.949-13.955v-227.711c0-7.69 6.259-13.943 13.949-13.943h227.705c7.696 0 13.955 6.253 13.955 13.943v227.711c0 7.69-6.259 13.955-13.955 13.955h-227.705z" />
<glyph unicode="&#xe91e;" glyph-name="ip2p_scan" d="M83.542 714.394v-83.241h33.337v83.241c0 9.095 7.471 16.566 16.566 16.566h83.241v33.337h-83.241c-27.47 0-49.904-22.434-49.904-49.904v0zM890.554 764.297h-83.241v-33.337h83.241c9.177 0 16.669-7.471 16.669-16.566v-83.241h33.235v83.241c0 27.47-22.35 49.904-49.904 49.904v0zM116.881 181.606v83.241h-33.339v-83.241c0-27.554 22.434-49.904 49.904-49.904h83.241v33.235h-83.241c-9.095 0-16.564 7.492-16.564 16.669v0zM907.223 181.606c0-9.177-7.492-16.669-16.669-16.669h-83.241v-33.235h83.241c27.554 0 49.904 22.35 49.904 49.904v83.241h-33.235v-83.241zM211.773 445.792c165.851 0 331.704 0 497.558 0 23.615 0 47.233 0 70.851 0 12.399 0 12.419 25.211 0 25.211-165.853 0-331.704 0-497.558 0-23.618 0-47.233 0-70.851 0-12.401 0-12.421-25.211 0-25.211v0zM298.783 677.261c0-61.348 0-122.696 0-184.044 0-16.222 25.213-16.249 25.213 0 0 61.348 0 122.696 0 184.044-0.002 16.222-25.213 16.249-25.213 0v0zM395.96 677.261c0-61.348 0-122.696 0-184.044 0-16.222 25.211-16.249 25.211 0 0 61.348 0 122.696 0 184.044 0 16.222-25.211 16.249-25.211 0v0zM687.495 677.261c0-61.348 0-122.696 0-184.044 0-16.222 25.213-16.249 25.213 0 0 61.348 0 122.696 0 184.044 0 16.222-25.213 16.249-25.213 0v0zM493.14 677.261c0-61.348 0-122.696 0-184.044 0-16.222 25.211-16.249 25.211 0 0 61.348 0 122.696 0 184.044 0 16.222-25.211 16.249-25.211 0v0zM590.318 677.261c0-61.348 0-122.696 0-184.044 0-16.222 25.211-16.249 25.211 0 0 61.348 0 122.696 0 184.044 0 16.222-25.211 16.249-25.211 0v0zM298.783 412.424c0-61.348 0-122.696 0-184.044 0-16.222 25.213-16.249 25.213 0 0 61.346 0 122.696 0 184.044-0.002 16.222-25.213 16.249-25.213 0v0zM395.96 412.424c0-61.348 0-122.696 0-184.044 0-16.222 25.211-16.249 25.211 0 0 61.346 0 122.696 0 184.044 0 16.222-25.211 16.249-25.211 0v0zM687.495 412.424c0-61.348 0-122.696 0-184.044 0-16.222 25.213-16.249 25.213 0 0 61.346 0 122.696 0 184.044 0 16.222-25.213 16.249-25.213 0v0zM493.14 412.424c0-61.348 0-122.696 0-184.044 0-16.222 25.211-16.249 25.211 0 0 61.346 0 122.696 0 184.044 0 16.222-25.211 16.249-25.211 0v0zM590.318 412.424c0-61.348 0-122.696 0-184.044 0-16.222 25.211-16.249 25.211 0 0 61.346 0 122.696 0 184.044 0 16.222-25.211 16.249-25.211 0v0z" />
<glyph unicode="&#xe91f;" glyph-name="ip2p_shopping" d="M377.94 387.758h407.964l72.182 257.655h-106.228l-38.144 117.809-159.054-51.558 21.754-66.251h-7.49l-39.266 117.809-159.054-51.558 21.748-66.251h-85.039l-17.656 70.629c-8.897 35.314-39.688 60.318-75.147 60.318h-48.595v-29.522h48.593c22.036 0 41.245-14.69 47.178-36.874l78.121-305.682c-16.105-11.586-26.702-30.513-26.702-52.124 0-35.314 29.522-64.842 64.838-64.842h397.652v29.53h-397.654c-19.208 0-35.314 16.243-35.314 35.314 0 19.35 16.251 35.598 35.314 35.598v0zM694.651 726.501l26.554-79.534h-114.842l-16.251 45.627 104.538 33.907zM510.585 726.501l26.554-79.534h-114.842l-16.243 45.627 104.53 33.907zM819.806 617.443l-55.937-200.309h-397.648l-51.567 200.309h505.151zM646.060 243.386c-33.909 0-61.876-27.97-61.876-61.87 0-33.903 27.97-61.878 61.876-61.878 35.314 0 61.87 27.976 61.87 61.878s-27.97 61.87-61.87 61.87v0zM646.060 147.616c-19.216 0-33.909 16.245-33.909 33.903 0 19.21 16.251 33.901 33.909 33.901 19.208 0 33.901-14.69 33.901-33.901 0-19.216-16.245-33.903-33.901-33.903v0zM419.195 243.386c-33.909 0-61.876-27.97-61.876-61.87 0-33.903 27.97-61.878 61.876-61.878 33.903 0 61.868 27.976 61.868 61.878s-27.967 61.87-61.868 61.87v0zM419.195 147.616c-19.216 0-33.909 16.245-33.909 33.903 0 19.21 16.251 33.901 33.909 33.901 17.656 0 33.903-14.69 33.903-33.901-0.002-19.216-16.247-33.903-33.903-33.903v0z" />
<glyph unicode="&#xe920;" glyph-name="mb_bills" d="M351.689 571.771h325.145v-26.444h-325.145v26.444zM351.689 439.724h325.145v-26.444h-325.145v26.444zM351.689 307.675h325.145v-26.442h-325.145v26.442zM882.801 695.742h-741.601v-22.268h126.99v-538.755l67.070 39.592 44.73-26.376 44.739 26.376 44.804-26.376 44.73 26.376 44.732-26.376 44.732 26.376 44.73-26.376 44.8 26.376 67.076-39.592v538.757h122.466v22.266zM738.068 173.718l-44.794 26.442-44.804-26.376-44.741 26.376-44.732-26.376-44.732 26.376-44.741-26.376-44.804 26.376-44.728-26.376-44.737 26.376-44.798-26.442v499.759h447.613v-499.759z" />
<glyph unicode="&#xe921;" glyph-name="ip2p_collect" d="M810.588 411.99c-10.748 0-19.343-8.606-19.343-19.771v-77.386c0-70.719-57.6-128.332-128.317-128.332h-245.918l89.991 89.991c7.526 7.526 7.526 19.995 0 27.523-7.516 7.51-19.982 7.51-27.509 0l-123.093-123.097c-3.654-3.65-5.806-8.604-5.806-13.758 0-5.165 2.152-10.109 5.806-13.761l123.093-111.542c3.871-3.863 8.817-5.804 13.761-5.804s9.886 1.939 13.748 5.804c7.526 7.526 7.526 19.993 0 27.517l-89.991 78.442h245.916c92.213 0 167.225 75.012 167.225 167.225v77.386c0 10.748-8.815 19.562-19.562 19.562v0zM213.844 414.353c10.746 0 19.556 8.815 19.556 19.565v53.088c0 5.372 2.372 10.537 6.453 13.969 46.42 38.048 96.729 63.414 106.187 68.149 7.735 3.86 12.896 11.817 12.896 20.634v74.582c0 6.457-3.232 12.689-8.606 16.12-4.289 2.793-6.871 7.735-6.871 12.9v77.382c0 27.73 22.563 50.295 50.082 50.295h16.552c27.732 0 50.086-22.565 50.086-50.295v-77.384c0-5.165-2.583-9.888-6.885-12.9-5.372-3.652-8.598-9.662-8.598-16.12v-74.582c0-8.606 4.944-16.773 12.9-20.634 9.679-4.735 59.972-30.102 106.187-68.149 4.082-3.43 6.443-8.376 6.443-13.969v-53.088c0-10.75 8.817-19.565 19.565-19.565s19.565 8.815 19.565 19.565v53.088c0 17.203-7.526 33.104-20.855 44.073-41.048 33.743-85.121 58.249-104.894 68.565v55.669c9.888 10.109 15.483 23.648 15.483 38.048v77.384c0 49.224-39.989 89.203-89.215 89.203h-16.552c-49.211 0-89.201-39.979-89.201-89.203v-77.384c0-14.399 5.593-27.939 15.481-38.048v-55.669c-19.773-10.316-63.844-34.822-104.892-68.565-13.119-10.75-20.857-26.868-20.857-44.073v-53.088c0.428-10.967 9.243-19.562 19.991-19.562v0z" />
<glyph unicode="&#xe922;" glyph-name="ip2p_iwishes" d="M675.527 728.297c47.958 0 96.233-24.926 122.989-63.502 50.217-72.395 13.853-179.466-36.921-255.531-72.141-108.069-201.517-201.656-249.797-234.396-49.523 35.109-184.705 135.999-250.761 235.313-50.082 75.297-85.584 181.725-35.027 254.614 27.877 40.192 71.324 63.246 119.196 63.246 2.222 0 4.448-0.051 6.679-0.152 69.032-3.138 99.738-37.37 132.25-73.613l28.127-31.328 24.732 29.688c38.285 42.316 74.861 71.32 128.924 75.311 3.158 0.231 6.388 0.35 9.611 0.35zM675.527 762.948c-4.076 0-8.124-0.147-12.159-0.446-70.523-5.21-115.495-46.199-152.066-86.622-33.688 37.536-73.148 82.772-157.846 86.622-2.755 0.125-5.505 0.188-8.251 0.188-57.6 0-112.534-27.494-147.667-78.148-59.773-86.176-23.308-206.414 34.648-293.548 86.159-129.536 279.114-257.942 279.114-257.942s184.289 114.928 279.112 256.977c58.102 87.042 96.348 208.337 36.573 294.513-34.349 49.527-94.435 78.406-151.458 78.406v0z" />
<glyph unicode="&#xe923;" glyph-name="ip2p_make" d="M393.255 411.99c-10.75 0-19.562-8.817-19.562-19.562v-77.386c0-92.213 75.012-167.225 167.225-167.225h245.916l-89.991-78.442c-7.526-7.524-7.526-19.991 0-27.517 3.863-3.863 8.804-5.804 13.748-5.804s9.888 1.939 13.761 5.804l123.093 111.542c3.654 3.652 5.806 8.595 5.806 13.761 0 5.153-2.152 10.109-5.806 13.758l-123.093 123.097c-7.526 7.51-19.993 7.51-27.509 0-7.526-7.526-7.526-19.995 0-27.523l89.991-89.991h-245.916c-70.719 0-128.317 57.612-128.317 128.332v77.386c0 11.166-8.598 19.771-19.345 19.771v0zM190.745 414.353c10.746 0 19.556 8.815 19.556 19.565v53.088c0 5.372 2.372 10.537 6.453 13.969 46.42 38.048 96.729 63.414 106.187 68.149 7.735 3.86 12.896 11.817 12.896 20.634v74.582c0 6.457-3.232 12.689-8.606 16.12-4.289 2.793-6.871 7.735-6.871 12.9v77.382c0 27.73 22.563 50.295 50.082 50.295h16.552c27.732 0 50.086-22.565 50.086-50.295v-77.384c0-5.165-2.583-9.888-6.885-12.9-5.372-3.652-8.598-9.662-8.598-16.12v-74.582c0-8.606 4.944-16.773 12.9-20.634 9.679-4.735 59.972-30.102 106.187-68.149 4.082-3.43 6.443-8.376 6.443-13.969v-53.088c0-10.75 8.817-19.565 19.565-19.565s19.565 8.815 19.565 19.565v53.088c0 17.203-7.526 33.104-20.855 44.073-41.048 33.743-85.121 58.249-104.894 68.565v55.669c9.888 10.109 15.483 23.648 15.483 38.048v77.384c0 49.224-39.989 89.203-89.215 89.203h-16.552c-49.211 0-89.201-39.979-89.201-89.203v-77.384c0-14.399 5.593-27.939 15.481-38.048v-55.669c-19.773-10.316-63.844-34.822-104.892-68.565-13.119-10.75-20.857-26.868-20.857-44.073v-53.088c0.428-10.967 9.243-19.562 19.991-19.562v0z" />
<glyph unicode="&#xe924;" glyph-name="ip2p_request" d="M545.126 463.194h-0.020l-15.438 1.806v227.291l20.107-3.148c77.541-12.118 131.699-57.424 131.699-110.17 0-9.74 7.918-17.658 17.648-17.658 9.751 0 17.678 7.918 17.678 17.658 0 73.736-72.212 135.469-171.694 146.794l-15.438 1.776v57.303c0 9.744-7.928 17.674-17.678 17.674-9.73 0-17.648-7.928-17.648-17.674v-57.303l-15.469-1.769c-99.473-11.334-171.674-73.066-171.674-146.801 0-73.3 72.212-134.783 171.694-146.192l15.448-1.769v-227.312l-20.12 3.148c-77.531 12.118-131.688 57.414-131.688 110.16 0 9.74-7.928 17.662-17.678 17.662-9.74 0-17.658-7.924-17.658-17.662 0-73.736 72.2-135.473 171.674-146.794l15.469-1.78v-57.309c0-9.73 7.918-17.641 17.648-17.641 9.751 0 17.678 7.911 17.678 17.641v57.309l15.428 1.769c99.494 11.332 171.704 73.075 171.704 146.805 0.002 73.298-72.198 134.781-171.672 146.186zM494.342 465.676l-20.12 3.148c-77.531 12.118-131.688 57.414-131.688 110.15 0 52.752 54.155 98.054 131.688 110.17l20.12 3.148v-226.615zM549.775 206.846l-20.107-3.148v226.595l20.107-3.158c77.541-12.118 131.699-57.403 131.699-110.129 0-52.746-54.155-98.044-131.699-110.16z" />
<glyph unicode="&#xe925;" glyph-name="mb_bonus_gallery" d="M811.923 575.697h-95.517l-149.101 122.669-0.907-1.1c3.486 7.588 5.48 15.995 5.48 24.877 0 33.016-26.864 59.879-59.879 59.879s-59.879-26.864-59.879-59.879c0-8.882 1.997-17.289 5.48-24.877l-0.907 1.1-149.101-122.669h-95.517c-29.985 0-54.381-24.396-54.381-54.381v-352.956c0-29.985 24.396-54.381 54.381-54.381h599.847c29.985 0 54.381 24.396 54.381 54.381v352.956c0 29.985-24.396 54.381-54.381 54.381zM512 756.922c19.175 0 34.781-15.606 34.781-34.781s-15.606-34.781-34.781-34.781-34.781 15.606-34.781 34.781 15.606 34.781 34.781 34.781zM471.568 678.103c10.666-9.802 24.84-15.841 40.432-15.841s29.764 6.040 40.432 15.841l124.471-102.404h-329.806l124.471 102.404zM841.206 168.36c0-16.144-13.138-29.282-29.282-29.282h-599.847c-16.144 0-29.282 13.138-29.282 29.282v352.956c0 16.144 13.138 29.282 29.282 29.282h100.817l1.493-1.815 2.204 1.815h390.82l2.204-1.815 1.493 1.815h100.817c16.144 0 29.282-13.138 29.282-29.282v-352.956zM340.425 377.666c-10.123 4.837-16.544 8.186-19.257 10.050s-4.69 3.791-5.933 5.784c-1.241 1.976-1.862 4.313-1.862 6.994 0 4.313 1.536 7.811 4.608 10.49s7.483 4.020 13.236 4.020c4.829 0 9.746-0.621 14.748-1.864s11.317-3.432 18.962-6.568l9.804 23.628c-7.385 3.203-14.461 5.687-21.225 7.451-6.756 1.749-13.865 2.632-21.307 2.632-15.163 0-27.036-3.611-35.631-10.867-8.587-7.254-12.884-17.224-12.884-29.903 0-6.715 1.307-12.599 3.922-17.631 2.605-5.034 6.101-9.445 10.482-13.236 4.379-3.791 10.94-7.746 19.7-11.864 9.347-4.444 15.538-7.68 18.571-9.691 3.039-2.025 5.343-4.135 6.912-6.324s2.353-4.69 2.353-7.5c0-5.032-1.782-8.823-5.343-11.373s-8.669-3.824-15.335-3.824c-5.556 0-11.682 0.883-18.375 2.646-6.699 1.765-14.887 4.805-24.551 9.118v-28.219c11.756-5.753 25.287-8.628 40.573-8.628 16.595 0 29.553 3.725 38.859 11.176 9.314 7.434 13.971 17.631 13.971 30.573 0 9.347-2.484 17.224-7.453 23.661-4.97 6.445-14.152 12.868-27.544 19.272zM460.878 406.573c-14.512 0-25.090-5.36-31.758-16.062h-1.569l0.686 8.806c0.457 8.954 0.688 14.641 0.688 17.060v31.064h-29.897v-152.49h29.897v51.554c0 12.728 1.862 21.944 5.589 27.632 3.725 5.687 9.763 8.53 18.129 8.53 11.766 0 17.639-7.909 17.639-23.726v-63.99h29.897v71.44c0 12.941-3.334 22.876-10.002 29.788-6.658 6.928-16.431 10.394-29.299 10.394zM605.534 399.71c-8.032 4.575-17.314 6.863-27.836 6.863-16.921 0-30.050-4.968-39.397-14.887-9.347-9.935-14.012-23.857-14.012-41.751 0-11.504 2.157-21.57 6.461-30.198 4.315-8.628 10.492-15.229 18.53-19.837 8.032-4.608 17.314-6.912 27.828-6.912 16.798 0 29.895 5.032 39.307 15.081 9.402 10.066 14.111 24.021 14.111 41.865 0 11.487-2.159 21.52-6.472 30.083s-10.482 15.116-18.52 19.692zM594.706 325.278c-3.496-5.523-9.232-8.284-17.207-8.284-8.030 0-13.832 2.777-17.394 8.333-3.564 5.556-5.337 13.758-5.337 24.609 0 10.899 1.765 19.053 5.286 24.445 3.531 5.392 9.282 8.090 17.248 8.090 8.038 0 13.824-2.712 17.353-8.137s5.294-13.562 5.294-24.396c0.004-10.918-1.753-19.137-5.243-24.66zM716.184 406.573c-13.72 0-24.078-5.425-31.064-16.259h-1.372l-4.217 14.201h-24.306v-157.784h29.895v44.397c0 1.438-0.522 6.732-1.571 15.868h1.571c7.311-9.331 17.41-14.004 30.278-14.004 8.563 0 16.015 2.255 22.346 6.765 6.341 4.51 11.225 11.063 14.658 19.692 3.422 8.628 5.138 18.792 5.138 30.493 0 17.762-3.662 31.652-10.973 41.652-7.318 9.98-17.441 14.981-30.382 14.981zM706.976 317.19c-7.582 0-13.122 2.55-16.609 7.647-3.496 5.1-5.245 13.529-5.245 25.295v3.219c0.131 10.457 1.894 17.959 5.294 22.501 3.391 4.542 8.784 6.814 16.171 6.814 7.049 0 12.231-2.695 15.532-8.088 3.299-5.392 4.952-13.482 4.952-24.267-0.004-22.075-6.705-33.122-20.095-33.122z" />
<glyph unicode="&#xe926;" glyph-name="location" d="M512 392.542c-85.557 0-155.226 69.675-155.226 155.363 0 85.559 69.532 155.23 155.226 155.23 85.557 0 155.226-69.671 155.226-155.23 0-85.688-69.669-155.363-155.226-155.363v0zM512 675.766c-70.588 0-127.855-57.403-127.855-127.861 0-70.625 57.266-127.99 127.855-127.99 70.49 0 127.859 57.364 127.859 127.99 0 70.457-57.369 127.861-127.859 127.861v0zM511.59-18.944c-5.054 0-9.736 2.804-12.13 7.207l-114.123 215.261c-144.017 52.996-240.374 190.763-240.374 344.381 0.002 202.312 164.69 367.038 367.036 367.038 202.349 0 367.034-164.727 367.034-367.038 0-154.165-96.901-292.037-241.433-344.754l-113.986-214.888c-2.39-4.403-7.070-7.207-12.026-7.207v0zM512 887.572c-187.24 0-339.667-152.424-339.667-339.667 0-143.88 91.3-272.56 227.15-320.324 3.213-1.233 5.88-3.486 7.481-6.562l104.626-197.12 104.249 196.708c1.608 3.074 4.407 5.501 7.617 6.562 136.54 47.524 228.248 176.306 228.248 320.733 0 187.247-152.426 339.669-339.704 339.669v0z" />
<glyph unicode="&#xe927;" glyph-name="mb_overseas_atm" d="M512.002 764.004c-174.246 0-316.004-141.756-316.004-316.008 0-174.242 141.756-316 316.004-316 174.242 0 316 141.756 316 316 0 174.25-141.758 316.008-316 316.008zM269.656 617.114c37.962 54.278 93.692 94.73 156.918 113.893l14.238 4.315-10.113-10.914c-24.414-26.352-44.929-64.664-59.32-110.799l-0.887-2.834h-105.275l4.44 6.339zM216.807 461.767c2.075 45.193 14.105 88.195 35.764 127.805l1.145 2.095h111.378l-1.233-4.999c-9.605-38.965-14.928-81.078-15.815-125.161l-0.082-3.953h-131.353l0.195 4.213zM252.572 306.42c-21.651 39.61-33.681 82.614-35.764 127.807l-0.193 4.219h131.353l0.082-3.953c0.887-44.083 6.21-86.196 15.817-125.168l1.229-4.999h-111.383l-1.141 2.093zM426.574 164.993c-63.234 19.171-118.96 59.617-156.918 113.887l-4.44 6.339h105.277l0.887-2.834c14.391-46.137 34.91-84.447 59.32-110.793l10.117-10.912-14.244 4.313zM499.829 152.938l-5.208 0.111c-40.827 9.613-77.974 55.845-101.915 126.845l-1.796 5.323h108.919v-132.278zM499.829 304.325h-114.508l-0.793 2.998c-10.506 39.705-16.349 82.434-17.373 126.994l-0.094 4.125h132.766v-134.117zM499.829 457.554h-132.766l0.094 4.127c1.016 44.089 7.023 87.998 17.377 126.986l0.797 3h114.5v-134.113zM499.829 610.775h-108.919l1.796 5.323c23.943 71.008 61.088 117.248 101.915 126.853l1.178 0.111h4.030v-132.286zM771.432 589.572c21.647-39.602 33.681-82.598 35.76-127.797l0.193-4.221h-134.097l-0.082 3.953c-0.883 44.075-6.203 86.188-15.811 125.161l-1.235 4.999h114.123l1.149-2.095zM593.576 732.070c64.954-18.651 122.051-59.482 160.772-114.956l4.426-6.339h-108.014l-0.883 2.834c-14.51 46.766-35.379 85.432-60.34 111.815l-10.142 10.715 14.18-4.069zM518.939 743.32h4.030c0.897 0 1.968-0.023 2.859-0.197 41.22-9.251 78.619-55.546 102.722-127.025l1.796-5.323h-111.407v132.545zM518.812 591.667h117.121l0.793-3c10.502-39.688 16.349-82.416 17.373-126.986l0.098-4.127h-135.385v134.113zM654.33 438.446l-0.098-4.125c-1.020-44.098-7.031-88.015-17.381-126.994l-0.795-2.998h-117.119v134.119h135.393zM525.945 152.9l-0.883-0.094c-0.387 0-1.030 0-1.284-0.055l-4.841-0.985v133.452h111.407l-1.796-5.323c-24.107-71.487-61.503-117.774-102.603-126.994zM754.352 279.013c-38.783-55.704-95.883-96.573-160.778-115.083l-14.139-4.039 10.107 10.684c24.918 26.335 45.787 65.049 60.34 111.942l0.883 2.834h108.001l-4.413-6.339zM807.193 434.233c-2.075-45.193-14.109-88.189-35.76-127.814l-1.149-2.093h-114.123l1.233 4.999c9.609 38.982 14.932 81.103 15.813 125.168l0.082 3.953h134.097l-0.193-4.213z" />
<glyph unicode="&#xe928;" glyph-name="star" d="M263.795 13.836c-10.709 0-21.416 3.351-30.62 9.966-16.2 11.948-24.115 31.482-20.855 51.13l41.366 241.541c0.87 4.938-0.743 9.912-4.313 13.38l-175.389 170.932c-14.313 13.98-19.405 34.488-13.265 53.541 6.107 18.815 22.686 32.786 42.254 35.602l242.375 35.213c4.946 0.735 9.241 3.824 11.414 8.253l108.497 219.636c8.841 17.983 26.759 29.145 46.801 29.145 20.074 0 38.048-11.178 46.907-29.172l108.261-219.591c2.21-4.403 6.541-7.537 11.506-8.28l242.393-35.205c19.515-2.816 36.055-16.787 42.146-35.584 6.158-19.071 1.067-39.58-13.244-53.551l-175.317-170.951c-3.586-3.469-5.2-8.468-4.368-13.435l41.312-241.388c3.424-19.579-4.477-39.174-20.638-51.087-16.271-11.85-37.343-13.39-55.118-4.067l-216.809 113.986c-4.422 2.374-9.638 2.357-13.986 0.055l-216.975-113.938c-7.645-4.104-15.999-6.132-24.334-6.132zM512.059 845.068c-5.782 0-10.963-3.226-13.517-8.415l-0.018-0.055-108.476-219.609c-7.539-15.319-22.233-26.008-39.299-28.563l-242.467-35.222c-5.689-0.817-10.49-4.856-12.249-10.291-1.757-5.446-0.236-11.551 3.858-15.555l175.409-170.94c12.337-12.059 17.918-29.362 14.948-46.293l-41.347-241.369c-0.942-5.708 1.395-11.469 6.124-14.959 4.565-3.295 10.691-3.75 15.708-1.051l217.008 113.959c15.184 8.098 33.43 8.098 48.722-0.055l216.682-113.92c5.057-2.636 11.323-2.193 15.944 1.149 4.657 3.432 6.994 9.142 5.997 14.811l-41.329 241.514c-2.863 17.095 2.789 34.363 15.112 46.266l175.245 170.887c4.094 4.004 5.618 10.109 3.842 15.573-1.741 5.417-6.523 9.458-12.141 10.273l-242.483 35.213c-16.996 2.537-31.672 13.181-39.336 28.484l-108.315 219.705c-2.572 5.229-7.791 8.462-13.623 8.462z" />
<glyph unicode="&#xe929;" glyph-name="menu_mobile_banking" d="M310.231 740.372c-0.012 0-0.027 0-0.041 0-6.956 0-12.595-5.639-12.595-12.595 0-0.014 0-0.029 0-0.043v0.002-602.563c0.058-30.651 24.89-55.484 55.536-55.542h317.733c30.651 0.058 55.484 24.89 55.542 55.536v645.658c-0.058 30.651-24.89 55.484-55.536 55.542h-317.733c-30.661-0.035-55.507-24.881-55.542-55.538v-45.735l403.456 0.389v-479.232h-378.286v481.485c0 0.030 0 0.066 0 0.102 0 6.922-5.612 12.534-12.534 12.534-0.007 0-0.015 0-0.022 0h0.001zM670.863 801.116c16.722-0.046 30.27-13.572 30.351-30.282v-20.16h-378.368v20.152c0.035 16.722 13.587 30.267 30.308 30.29h0.002zM353.137 94.884c0 0 0 0 0 0-16.745 0-30.325 13.551-30.372 30.285v95.85h378.388v-95.846c-0.035-16.715-13.575-30.255-30.287-30.29h-317.73zM535.593 572.928c28.283-4.424 48.783-21.197 48.783-39.875 0-5.712 4.63-10.342 10.342-10.342s10.342 4.63 10.342 10.342v0c0 30.72-29.594 56.361-70.39 60.989l-3.052 0.328v19.517c0 5.712-4.63 10.342-10.342 10.342s-10.342-4.63-10.342-10.342v0-19.456l-3.052-0.328c-40.776-4.628-70.39-30.29-70.39-60.989s29.635-56.074 70.41-60.744l3.031-0.348v-82.166l-3.953 0.614c-28.283 4.403-48.804 21.176-48.804 39.854 0 5.706-4.626 10.332-10.332 10.332s-10.332-4.626-10.332-10.332v0c0-30.72 29.594-56.34 70.39-60.989l3.052-0.328v-19.456c0-5.712 4.63-10.342 10.342-10.342s10.342 4.63 10.342 10.342v0 19.456l3.052 0.328c40.796 4.649 70.39 30.29 70.39 60.989s-29.594 56.095-70.41 60.682l-3.052 0.348v82.268l3.973-0.614zM511.017 492.585l-3.953 0.614c-28.283 4.424-48.804 21.197-48.804 39.854s20.48 35.451 48.804 39.875l3.953 0.614zM535.593 470.057c28.262-4.403 48.783-21.176 48.783-39.854s-20.48-35.451-48.783-39.854l-3.973-0.614v81.060l3.973-0.614z" />
<glyph unicode="&#xe92a;" glyph-name="mb_credit_card" d="M802.408 695.808h-580.815c-26.231 0-47.522-21.289-47.522-47.524v-400.626c0-26.178 21.289-47.466 47.522-47.466h580.817c26.229 0 47.52 21.289 47.52 47.466v400.626c-0.002 26.235-21.291 47.524-47.522 47.524v0zM827.372 247.658c0-13.758-11.166-24.979-24.963-24.979h-580.815c-13.799 0-24.965 11.221-24.965 24.979v400.626c0 13.799 11.166 24.965 24.965 24.965h580.817c13.797 0 24.963-11.166 24.963-24.965v-400.626zM268.97 569.264h327.852v-26.663h-327.852v26.663zM268.97 499.36h327.852v-26.663h-327.852v26.663zM609.29 326.218h132.246v-26.663h-132.246v26.663z" />
<glyph unicode="&#xe92b;" glyph-name="mb_fx" d="M283.099 394.336c-1.395-0.281-2.769-1.847-4.93-5.456-0.989-1.847-1.948-4.403-2.97-7.111-1.462-3.873-3.113-8.268-5.812-12.767-5.489-8.878-25.747-38.197-58.614-46.713-31.844-8.839-60.727-2.275-88.156 20.062-15.817 13.023-28.375 32.549-36.354 56.476l-3.607 10.83h96.002c3.809 0 5.351 1.374 6.359 2.724 1.528 2.097 1.442 5.816-0.244 7.883-0.346 0.401-1.776 2.064-6.115 2.064h-97.341l-1.325 6.613c-0.618 3.101-0.618 5.994-0.618 8.548-1.43 13.836-0.948 29.6 1.47 46.031l1.036 7.031h119.894c4.504 0 5.343 1.511 5.745 2.243l0.457 0.723c1.319 1.888 1.231 5.255-0.205 7.506-0.647 0.819-2.185 2.193-5.999 2.193h-116.582l3.334 10.678c2.591 8.284 6.267 16.519 9.183 22.761 11.436 22.53 38.173 59.634 90.202 56.508 0.037 0 0.072 0 0.109 0 7.156 0 15.053-1.278 24.394-4.016 28.262-7.44 49.265-29.495 57.44-48.032 1.743-3.213 3.246-6.935 4.573-10.222 1.253-3.101 2.433-6.033 3.793-8.364 2.109-3.518 3.48-5.087 4.676-5.327 6.435-1.462 10.123-0.233 14.326 4.676 6.496 7.858 2.945 16.681-3.688 30.276l-1.174 2.41c-11.237 22.039-34.152 43.227-58.296 53.815-38.41 16.978-84.453 12.567-114.592-10.967-30.511-24.49-49.539-53.279-58.092-87.939l-1.542-6.259h-38.339c-1.696 0-3.94-0.369-5.046-2.136-1.141-1.905-1.212-5.409-0.080-7.674 0.743-1.485 1.872-2.853 5.126-2.853h35.854l-0.856-9.007c-0.895-9.409-1.35-19.251-1.35-29.27 0-6.709 0.446-13.674 1.321-20.697l1.153-9.249h-36.121c-3.744 0-5.014-1.366-5.757-2.707-1.309-2.642-1.245-6.33 0.317-8.067 1.12-1.341 2.882-1.896 5.439-1.896h38.173l1.327-6.613c2.574-12.88 5.306-22.835 8.356-30.452 15.426-43.428 55.994-73.404 105.986-78.531 22.477-2.249 39.506 0.242 58.747 8.598 23.912 10.486 46.807 31.826 58.319 54.37l1.133 2.331c6.597 13.507 10.131 22.256 3.68 29.784-4.444 5.19-8.141 6.58-14.121 5.19zM921.399 452.628l-7.287 0.836v114.19l9.497-1.479c39.076-6.107 66.372-28.869 66.372-55.351 0-5.296 4.307-9.601 9.597-9.601 5.294 0 9.601 4.307 9.601 9.601 0 37.788-36.911 69.413-87.771 75.196l-7.295 0.827v28.563c0 5.296-4.311 9.601-9.605 9.601-5.29 0-9.601-4.307-9.601-9.601v-28.563l-7.295-0.827c-50.856-5.786-87.767-37.409-87.767-75.196 0-37.554 36.915-69.050 87.775-74.899l7.287-0.836v-114.18l-9.497 1.479c-39.080 6.105-66.376 28.869-66.376 55.351 0 5.286-4.307 9.593-9.593 9.593-5.294 0-9.597-4.307-9.597-9.593 0-37.788 36.911-69.413 87.767-75.205l7.295-0.827v-28.563c0-5.286 4.311-9.593 9.601-9.593 5.294 0 9.605 4.307 9.605 9.593v28.563l7.295 0.827c50.86 5.794 87.771 37.425 87.771 75.205 0.002 37.552-36.915 69.048-87.779 74.889zM894.906 453.992l-9.497 1.487c-39.080 6.113-66.376 28.877-66.376 55.343 0 26.483 27.294 49.244 66.376 55.351l9.497 1.479v-113.66zM923.611 322.386l-9.497-1.479v113.658l9.501-1.487c39.078-6.113 66.367-28.877 66.367-55.343-0.002-26.481-27.296-49.244-66.372-55.349zM681.923 366.037c-4.237 4.227-11.401 4.227-15.634 0-4.239-4.241-4.239-11.409 0-15.651l32.166-32.172h-201.72c-57.448 0-104.186 46.746-104.186 104.202v60.359c0 6.339-4.821 11.305-10.975 11.305-6.146 0-11.143-4.997-11.143-11.145v-60.357c0-69.644 56.66-126.306 126.304-126.306h201.72l-32.166-32.162c-2.060-2.066-3.199-4.846-3.199-7.827s1.137-5.753 3.199-7.817c4.278-4.291 11.346-4.291 15.634 0l50.964 50.956c2.109 2.114 3.322 4.966 3.322 7.825 0 2.861-1.208 5.714-3.322 7.817l-50.964 50.973zM609.903 599.728h-201.72l32.166 32.162c2.060 2.064 3.199 4.846 3.199 7.825s-1.137 5.753-3.199 7.817c-4.291 4.291-11.336 4.291-15.639 0l-50.96-50.956c-2.109-2.114-3.322-4.966-3.322-7.827 0-2.859 1.212-5.712 3.322-7.825l50.964-50.964c4.243-4.225 11.401-4.225 15.634 0 4.239 4.243 4.239 11.409 0 15.653l-32.166 32.162h201.72c57.448 0 104.186-46.737 104.186-104.194v-60.357c0-6.339 4.821-11.305 10.975-11.305 6.142 0 11.143 4.997 11.143 11.143v60.357c0.002 69.648-56.66 126.31-126.304 126.31z" />
<glyph unicode="&#xe92c;" glyph-name="mb_insurance" d="M166.226 409.307c26.735 27.57 63.193 43.114 102.121 43.114 50.231 0 96.053-26.022 121.829-68.53 23.009 37.925 62.188 62.999 106.602 67.721l6.025 0.639v-274.117c0-27.226-22.151-49.385-49.375-49.385s-49.375 22.159-49.375 49.385c0 5.067-4.125 9.191-9.202 9.191-5.059 0-9.175-4.125-9.175-9.191 0-37.36 30.394-67.754 67.754-67.754s67.758 30.394 67.758 67.754v274.125l6.025-0.637c44.421-4.731 83.593-29.805 106.602-67.729 25.788 42.508 71.608 68.53 121.829 68.53 38.935 0 75.399-15.544 102.134-43.114-5.874 180.906-149.309 326.66-331.364 334.125l-5.226 0.213v49.471c0 5.067-4.121 9.185-9.189 9.185-5.067 0-9.193-4.116-9.193-9.185v-49.476l-5.222-0.213c-182.059-7.463-325.485-153.219-331.358-334.123zM210.137 525.265c16.515 39.021 40.143 74.056 70.23 104.139s65.118 53.707 104.126 70.21c40.356 17.074 83.253 25.735 127.5 25.735 44.231 0 87.124-8.661 127.496-25.729 39.016-16.511 74.052-40.135 104.135-70.218 30.087-30.091 53.711-65.126 70.21-104.131 8.808-20.824 15.446-42.557 19.732-64.61l2.083-10.707-9.81 4.764c-21.971 10.674-45.591 16.077-70.201 16.077-30.083 0-59.421-8.35-84.847-24.156-12.169-7.563-23.267-16.708-32.993-27.169l-3.99-4.297-3.992 4.297c-9.736 10.478-20.836 19.614-32.993 27.169-25.426 15.806-54.759 24.156-84.832 24.156-30.075 0-59.412-8.35-84.836-24.156-12.147-7.555-23.249-16.691-32.993-27.169l-3.99-4.291-3.987 4.291c-9.753 10.478-20.855 19.622-32.993 27.169-25.426 15.806-54.768 24.156-84.851 24.156-24.603 0-48.222-5.403-70.201-16.077l-9.806-4.755 2.081 10.699c4.284 22.039 10.924 43.772 19.722 64.604zM701.272 377.674c-78.291 0-141.988-63.697-141.988-141.988 0-78.293 63.695-141.99 141.988-141.99 78.285 0 141.98 63.697 141.98 141.99 0 78.291-63.695 141.988-141.98 141.988v0zM701.272 111.518c-68.465 0-124.166 55.702-124.166 124.166s55.702 124.164 124.166 124.164 124.158-55.702 124.158-124.164c0-68.465-55.695-124.166-124.158-124.166v0zM710.183 243.941v48.615c16.785-2.626 29.706-12.339 29.706-23.609 0-4.919 3.981-8.911 8.909-8.911 4.919 0 8.913 3.992 8.913 8.911 0 21.387-20.261 38.576-47.526 41.677v10.609c0 4.921-3.994 8.913-8.913 8.913-4.927 0-8.913-3.992-8.913-8.913v-10.609c-27.271-3.101-47.524-20.292-47.524-41.677 0-21.361 20.29-38.402 47.524-41.523v-48.613c-16.785 2.623-29.704 12.337-29.704 23.605 0 4.919-3.992 8.911-8.911 8.911-4.927 0-8.909-3.992-8.909-8.911 0-21.385 20.253-38.574 47.524-41.679v-10.609c0-4.917 3.985-8.907 8.913-8.907 4.919 0 8.913 3.987 8.913 8.907v10.609c27.265 3.105 47.526 20.294 47.526 41.679-0.002 21.367-20.292 38.402-47.528 41.525zM662.655 268.947c0 11.268 12.917 20.984 29.704 23.609v-47.208c-16.787 2.626-29.704 12.337-29.704 23.599zM710.183 178.813v47.206c16.785-2.626 29.706-12.339 29.706-23.601 0-11.268-12.919-20.982-29.706-23.605z" />
<glyph unicode="&#xe92d;" glyph-name="mb_iplanner" d="M65.634 493.478c0.408-20.763 21.627-36.981 50.706-38.998 14.379-3.338 55.867-3.906 167.901-3.981 38.5-0.039 78.316-0.059 108.683-0.553 0.090 0 0.176 0 0.176 0 1.253 0 2.415 0.133 3.557 0.399 56.926 13.136 115.067 26.1 171.287 38.644 112.699 25.129 229.243 51.114 342.151 79.886 0.238 0.066 0.483 0.131 0.721 0.209 43.655 13.408 95.617 57.391 88.949 84.005-10.396 41.478-104.415 60.662-197.435 40.192-42.107-9.72-132.557-30.806-179.98-42.068-31.007 2.798-281.829 111.016-338.184 136.604-3.129 1.417-6.629 1.759-9.978 0.948-11.776-2.804-20.781-4.839-29.819-6.883-9.044-2.036-18.1-4.082-29.905-6.906-5.988-1.425-10.555-6.267-11.631-12.325-1.073-6.062 1.55-12.184 6.685-15.581 32.063-21.219 127.214-85.658 211.808-143.915-3.252-0.778-6.355-1.53-9.359-2.253-27.202-6.541-45.634-10.975-85.354-20.154l-87.618 8.169-152.418 99.809c-3.586 2.351-7.979 3.113-12.126 2.075l-41.329-10.109c-4.604-1.122-8.425-4.301-10.387-8.61-1.958-4.307-1.835-9.271 0.334-13.488l68.641-132.927c-19.177-7.031-26.313-20.253-26.075-32.188v0zM59.527 655.34l15.743 3.863 150.002-98.23c2.109-1.38 4.516-2.226 7.029-2.464l93.923-8.761c1.626-0.141 3.289-0.037 4.899 0.332 41.554 9.587 60.234 14.086 88.074 20.783 11.839 2.853 25.348 6.105 42.981 10.31 5.933 1.419 10.471 6.191 11.594 12.184 1.124 5.982-1.38 12.079-6.392 15.553-72.675 50.295-160.571 110.064-211.036 144.011 6.134 1.386 12.489 2.845 19.898 4.581 21.228-9.435 95.367-41.943 168.301-72.38 164.774-68.766 176.13-66.075 183.622-64.279 46.987 11.166 138.646 32.539 180.953 42.308 89.778 19.757 151.935-3.26 159.914-15.895-4.862-10.623-33.12-38.015-66.951-48.534-112.349-28.621-228.508-54.53-340.863-79.583-55.683-12.411-113.232-25.25-169.683-38.273-30.349 0.467-69.439 0.494-107.276 0.522-62.413 0.051-147.728 0.104-160.18 2.931-1.452 0.532-2.984 0.848-4.536 0.924-14.125 0.702-21.058 6.105-22.704 8.491 1.712 1.591 7.231 4.616 19.251 5.698 5.118 0.467 9.675 3.443 12.147 7.952 2.482 4.506 2.548 9.949 0.193 14.524l-68.901 133.433zM987.202 137.71h-940.579c-8.532 0-15.448-6.914-15.448-15.456 0-8.532 6.916-15.446 15.448-15.446h940.579c8.532 0 15.446 6.914 15.446 15.446 0 8.542-6.914 15.456-15.446 15.456v0z" />
<glyph unicode="&#xe92e;" glyph-name="mb_transfer" d="M657.758 266.117c-5.075 5.071-13.65 5.063-18.721 0-5.079-5.079-5.079-13.662 0-18.741l43.112-43.11h-262.103c-74.51 0-135.127 60.625-135.127 135.141v143.030c0 7.61-5.771 13.566-13.136 13.566-7.361 0-13.353-5.988-13.353-13.353v-143.030c0-89.115 72.499-161.616 161.614-161.616h262.103l-43.112-43.112c-2.466-2.466-3.826-5.792-3.826-9.363 0-3.58 1.36-6.906 3.826-9.372 5.136-5.12 13.564-5.136 18.731 0.008l65.602 65.606c2.535 2.531 3.99 5.939 3.99 9.363s-1.454 6.84-3.99 9.372l-65.61 65.612zM603.953 718.146h-263.174l43.112 43.112c2.466 2.466 3.826 5.792 3.826 9.363s-1.36 6.898-3.826 9.363c-4.932 4.94-13.799 4.94-18.727 0l-65.61-65.606c-2.531-2.54-3.985-5.956-3.985-9.363 0-3.424 1.454-6.84 3.99-9.372l65.384-65.819c5.145-5.145 13.591-5.136 18.737 0 5.067 5.071 5.067 13.646-0.004 18.719l-43.112 43.11h263.166c74.516 0 135.139-60.617 135.139-135.125v-190.362c0-7.365 5.988-13.353 13.347-13.353 7.361 0 13.349 5.988 13.349 13.353v190.362c0.002 89.115-72.497 161.616-161.612 161.616zM522.435 474.397v81.172c28.027-4.383 49.601-20.603 49.601-39.42 0-8.217 6.65-14.879 14.879-14.879 8.212 0 14.879 6.662 14.879 14.879 0 35.711-33.833 64.414-79.358 69.595v17.711c0 8.215-6.666 14.881-14.881 14.881-8.227 0-14.881-6.666-14.881-14.881v-17.711c-45.537-5.181-79.354-33.882-79.354-69.595 0-35.668 33.878-64.121 79.354-69.335v-81.172c-28.033 4.381-49.598 20.599-49.598 39.416 0 8.215-6.664 14.881-14.879 14.881-8.227 0-14.877-6.666-14.877-14.881 0-35.709 33.817-64.41 79.354-69.595v-17.711c0-8.215 6.654-14.871 14.881-14.871 8.215 0 14.881 6.656 14.881 14.871v17.711c45.525 5.186 79.358 33.886 79.358 69.595 0 35.672-33.882 64.121-79.358 69.339zM443.075 516.149c0 18.817 21.565 35.037 49.598 39.42v-78.825c-28.033 4.381-49.598 20.599-49.598 39.406zM522.435 365.642v78.825c28.027-4.387 49.601-20.603 49.601-39.408 0-18.819-21.574-35.037-49.601-39.418z" />
<glyph unicode="&#xe92f;" glyph-name="menu_collect_ip2p" d="M555.5 313.549c-2.445 1.999-5.602 3.211-9.042 3.211s-6.597-1.212-9.068-3.231l0.026 0.020c-2.167-1.786-3.538-4.471-3.538-7.475s1.371-5.689 3.521-7.462l0.017-0.013 29.88-26.112h-196.915c-56.115 0-101.786 40.059-101.786 89.313v52.408c0 6.144-5.509 10.957-12.534 10.957s-12.718-4.854-12.718-10.813v-52.367c0-61.092 56.996-110.776 126.976-110.776h196.977l-29.86-26.112c-2.167-1.786-3.538-4.471-3.538-7.475s1.371-5.689 3.521-7.462l0.017-0.013c2.445-1.999 5.602-3.211 9.042-3.211s6.597 1.212 9.068 3.231l-0.026-0.020 50.586 44.237c2.237 1.747 3.661 4.445 3.661 7.475s-1.424 5.728-3.64 7.459l-0.021 0.016zM448.86 621.629c2.447-2.004 5.608-3.219 9.052-3.219s6.606 1.215 9.078 3.24l-0.025-0.020c2.167 1.786 3.538 4.471 3.538 7.475s-1.371 5.689-3.521 7.462l-0.017 0.013-29.839 26.112h197.755c56.115 0 101.806-40.059 101.806-89.313v-52.408c0-5.96 5.693-10.813 12.698-10.813s12.698 4.854 12.698 10.813v52.408c0 61.071-56.975 110.776-126.976 110.776h-197.837l29.839 26.112c2.167 1.786 3.538 4.471 3.538 7.475s-1.371 5.689-3.521 7.462l-0.017 0.013c-2.445 1.999-5.602 3.211-9.042 3.211s-6.597-1.212-9.068-3.231l0.026 0.020-50.586-44.237c-2.237-1.751-3.661-4.452-3.661-7.485s1.424-5.734 3.641-7.47l0.021-0.016zM217.907 607.293c-3.502 2.358-5.775 6.308-5.775 10.788 0 0.002 0 0.003 0 0.005v0 52.388c0 0.012 0 0.027 0 0.041 0 20.097 16.263 36.396 36.346 36.454h11.209c20.089-0.058 36.352-16.357 36.352-36.454 0-0.014 0-0.029 0-0.043v0.002-52.388c-0.008-4.444-2.244-8.363-5.649-10.703l-0.044-0.029c-2.887-1.952-4.762-5.21-4.772-8.907v-50.505c0-0.024 0-0.053 0-0.082 0-5.134 2.934-9.583 7.216-11.762l0.075-0.035c27.557-13.886 51.29-29.332 73.121-47.034l-0.745 0.585c3.214-2.693 5.244-6.709 5.244-11.199 0-0.052 0-0.103-0.001-0.154v0.008-35.942c-0.007-0.14-0.010-0.305-0.010-0.47 0-5.972 4.841-10.813 10.813-10.813s10.813 4.841 10.813 10.813c0 0.165-0.004 0.33-0.011 0.494l0.001-0.023v36.045c0 0.014 0 0.031 0 0.047 0 11.218-5.119 21.24-13.148 27.859l-0.062 0.049c-20.599 16.718-43.709 32.025-68.24 45.005l-2.314 1.116-1.311 0.676v40.284l0.696 0.717c6.017 6.165 9.728 14.603 9.728 23.908 0 0.019 0 0.038 0 0.057v-0.003 52.388c-0.035 31.995-25.963 57.923-57.955 57.958h-11.206c-31.934-0.116-57.78-26.013-57.815-57.955v-52.391c0-0.028 0-0.060 0-0.093 0-9.336 3.736-17.799 9.795-23.976l-0.005 0.005 0.696-0.717v-40.161l-1.311-0.676c-26.869-14.103-49.999-29.417-71.412-46.767l0.797 0.625c-8.102-6.646-13.23-16.657-13.23-27.867 0-0.031 0-0.062 0-0.093v0.005-35.942c0.202-5.96 5.040-10.726 11.010-10.813h0.008c5.963 0.012 10.793 4.849 10.793 10.813 0 0 0 0 0 0v0 35.942c0 0.018 0 0.039 0 0.060 0 4.51 2.028 8.547 5.221 11.248l0.022 0.018c21.088 17.010 44.816 32.425 70.059 45.294l2.317 1.072c4.368 2.218 7.321 6.656 7.373 11.79v50.593c0 0.029 0 0.063 0 0.098 0 3.635-1.846 6.84-4.653 8.726l-0.038 0.024zM824.463 288.42l-1.311 0.676v40.12l0.696 0.717c5.993 6.163 9.688 14.588 9.688 23.875 0 0.074 0 0.147-0.001 0.221v-0.011 52.408c-0.035 31.995-25.963 57.923-57.955 57.958h-11.206c-31.934-0.116-57.78-26.013-57.815-57.955v-52.391c0-0.025 0-0.055 0-0.085 0-9.339 3.736-17.805 9.795-23.985l-0.006 0.006 0.696-0.717v-40.161l-1.311-0.676c-26.868-14.103-49.998-29.425-71.408-46.784l0.793 0.622c-8.102-6.646-13.23-16.657-13.23-27.867 0-0.031 0-0.062 0-0.093v0.005-35.942c0.204-5.989 5.087-10.771 11.096-10.813h0.004c5.963 0.012 10.793 4.849 10.793 10.813 0 0 0 0 0 0v0 35.963c0 0.018 0 0.039 0 0.060 0 4.51 2.028 8.547 5.221 11.248l0.022 0.018c21.091 17.039 44.819 32.481 70.063 45.376l2.313 1.073c4.377 2.212 7.337 6.652 7.393 11.789v50.491c0 0.026 0 0.056 0 0.087 0 3.639-1.846 6.846-4.653 8.737l-0.038 0.024c-3.502 2.358-5.775 6.308-5.775 10.788 0 0.002 0 0.003 0 0.005v0 52.408c0 0.012 0 0.027 0 0.041 0 20.097 16.263 36.396 36.346 36.454h11.209c20.092-0.070 36.352-16.373 36.352-36.475 0-0.007 0-0.015 0-0.022v0.001-52.388c-0.008-4.444-2.244-8.363-5.649-10.703l-0.044-0.029c-2.89-1.953-4.77-5.209-4.792-8.905v-50.486c0.016-5.15 2.982-9.604 7.297-11.762l0.076-0.035c27.557-13.886 51.29-29.332 73.121-47.034l-0.745 0.585c3.214-2.69 5.244-6.703 5.244-11.19 0-0.055 0-0.11-0.001-0.164v0.008-35.942c0.259-5.766 4.997-10.343 10.803-10.343s10.544 4.577 10.802 10.32l0.001 0.023v35.942c-0.031 11.253-5.211 21.29-13.308 27.883l-0.066 0.052c-20.59 16.731-43.686 32.051-68.203 45.045l-2.31 1.117zM531.067 541.143c20.111-3.154 34.693-15.073 34.693-28.344 0-4.061 3.292-7.352 7.352-7.352s7.352 3.292 7.352 7.352v0c0 21.832-21.053 40.059-50.053 43.356l-2.171 0.246v13.844c0 4.061-3.292 7.352-7.352 7.352s-7.352-3.292-7.352-7.352v-13.844l-2.171-0.246c-29-3.297-50.053-21.545-50.053-43.356s21.053-39.875 50.053-43.213l2.15-0.246v-58.409l-2.806 0.43c-20.111 3.133-34.693 15.053-34.693 28.344 0 4.061-3.292 7.352-7.352 7.352s-7.352-3.292-7.352-7.352v0c0-21.811 21.053-40.059 50.053-43.356l2.171-0.246v-13.844c0-4.061 3.292-7.352 7.352-7.352s7.352 3.292 7.352 7.352v0 13.844l2.171 0.246c29 3.297 50.053 21.545 50.053 43.356s-21.053 39.875-50.033 43.11l-2.171 0.246v58.511zM513.536 484.024l-2.806 0.43c-20.111 3.154-34.693 15.073-34.693 28.344s14.602 25.211 34.693 28.344l2.806 0.43zM531.067 468.050c20.091-3.133 34.693-15.053 34.693-28.344s-14.602-25.211-34.693-28.344l-2.826-0.43v57.549z" />
<glyph unicode="&#xe930;" glyph-name="menu_lifestyle" d="M771.543 669.512c-30.418 30.426-72.444 49.245-118.866 49.245-46.473 0-88.54-18.861-118.966-49.345l-0.003-0.003-21.709-22.139-22.262 22.241c-30.247 30.364-72.095 49.153-118.332 49.153-0.159 0-0.318 0-0.477-0.001h0.024c-0.222 0.001-0.484 0.002-0.746 0.002-46.009 0-87.627-18.8-117.591-49.137l-0.017-0.017c-30.477-30.433-49.331-72.499-49.331-118.968s18.853-88.536 49.329-118.966l251.21-251.128c2.090-1.976 4.917-3.191 8.028-3.191s5.939 1.215 8.034 3.196l251.285 251.346c30.644 29.962 49.646 71.722 49.646 117.919 0 0.304-0.001 0.608-0.002 0.912v-0.047c0.001 0.157 0.001 0.342 0.001 0.528 0 46.277-18.83 88.155-49.247 118.392l-0.008 0.008zM755.466 447.857l-243.282-243.302-243.712 243.712c-26.619 26.338-43.102 62.875-43.102 103.261 0 80.216 65.028 145.244 145.244 145.244 40.279 0 76.729-16.396 103.039-42.878l30.155-30.134c2.095-1.947 4.912-3.142 8.008-3.142s5.913 1.195 8.015 3.148l30.099 30.119c26.27 26.252 62.551 42.489 102.625 42.489 80.182 0 145.183-65.001 145.183-145.183 0-0.041 0-0.081 0-0.122v0.006c0.009-0.604 0.015-1.317 0.015-2.031 0-39.584-16.173-75.391-42.271-101.174l-0.014-0.014z" />
<glyph unicode="&#xe931;" glyph-name="menu_services_and_offers" d="M309.391 594.063h277.32v-21.586h-277.32v21.586zM309.391 458.854h250.266v-21.586h-250.266v21.586zM309.391 323.645h185.139v-21.586h-185.139v21.586zM719.749 735.416h-435.077c-28.93-0.342-52.291-23.704-52.633-52.601v-522.273h434.586v318.566h125.399v182.866c0.002 0.183 0.003 0.4 0.003 0.616 0 40.028-32.293 72.513-72.247 72.825h-0.030zM645.12 661.975v-479.805h-392.847v500.716c0 17.121 14.459 31.048 32.236 31.048h381.542l-2.253-2.499c-11.593-12.952-18.679-30.148-18.679-48.999 0-0.162 0.001-0.324 0.002-0.486v0.025zM771.932 500.695h-105.185l-1.147 161.26c0.206 25.238 17.785 46.313 41.354 51.865l0.364 0.072h11.121v1.208h1.536c28.732-0.895 51.712-24.29 51.937-53.103v-0.022z" />
</font>
</defs>
</svg>
